{
DisplayStrings = (
/slash,
"%"
);
copyright = HuseyinAlperTUNA;
customParameters = (
{
name = vendorID;
value = 2ttf;
},
{
name = glyphOrder;
value = (
    ".notdef",
    uni0000,
    uni000D,
    space,
    exclam,
    quotedbl,
    numbersign,
    dollar,
    percent,
    ampersand,
    quotesingle,
    parenleft,
    parenright,
    asterisk,
    plus,
    comma,
    hyphen,
    period,
    slash,
    zero,
    one,
    two,
    three,
    four,
    five,
    six,
    seven,
    eight,
    nine,
    colon,
    semicolon,
    less,
    equal,
    greater,
    question,
    A,
    B,
    C,
    D,
    E,
    F,
    G,
    H,
    I,
    J,
    K,
    L,
    M,
    N,
    O,
    P,
    Q,
    R,
    S,
    T,
    U,
    V,
    W,
    X,
    Y,
    Z,
    bracketleft,
    backslash,
    bracketright,
    asciicircum,
    underscore,
    grave,
    a,
    b,
    c,
    d,
    e,
    f,
    g,
    h,
    i,
    j,
    k,
    l,
    m,
    n,
    o,
    p,
    q,
    r,
    s,
    t,
    u,
    v,
    w,
    x,
    y,
    z,
    braceleft,
    bar,
    braceright,
    uni00A0,
    cent,
    sterling,
    yen,
    copyright,
    periodcentered,
    Ccedilla,
    Odieresis,
    Udieresis,
    ccedilla,
    odieresis,
    udieresis,
    Gbreve,
    gbreve,
    Idotaccent,
    dotlessi,
    Scedilla,
    scedilla,
    Euro,
    uni3000
);
}
);
date = "2014-02-20 17:08:35 +0000";
familyName = "PixelMecha";
fontMaster = (
{
ascender = 768;
capHeight = 700;
customParameters = (
{
name = typoAscender;
value = 768;
},
{
name = typoDescender;
value = "-256";
},
{
name = typoLineGap;
value = 92;
},
{
name = underlinePosition;
value = "-128";
}
);
descender = "-256";
id = "1F735D37-B4CA-40B6-B90B-0360E7E97D88";
weightValue = 500;
widthValue = 5;
xHeight = 500;
}
);
glyphs = (
{
glyphname = .notdef;
layers = (
{
layerId = "1F735D37-B4CA-40B6-B90B-0360E7E97D88";
name = Regular;
paths = (
{
closed = 1;
nodes = (
"34 0 LINE",
"34 682 LINE",
"306 682 LINE",
"306 0 LINE"
);
},
{
closed = 1;
nodes = (
"68 34 LINE",
"272 34 LINE",
"272 648 LINE",
"68 648 LINE"
);
}
);
width = 374;
}
);
},
{
glyphname = exclam;
layers = (
{
layerId = "1F735D37-B4CA-40B6-B90B-0360E7E97D88";
name = Regular;
paths = (
{
closed = 1;
nodes = (
"0 0 LINE",
"0 64 LINE",
"64 64 LINE",
"64 0 LINE"
);
},
{
closed = 1;
nodes = (
"0 192 LINE",
"0 256 LINE",
"0 320 LINE",
"0 384 LINE",
"0 448 LINE",
"0 512 LINE",
"0 576 LINE",
"0 640 LINE",
"0 704 LINE",
"64 704 LINE",
"64 640 LINE",
"64 576 LINE",
"64 512 LINE",
"64 448 LINE",
"64 384 LINE",
"64 320 LINE",
"64 256 LINE",
"64 192 LINE"
);
}
);
width = 192;
}
);
unicode = 0021;
},
{
glyphname = quotedbl;
layers = (
{
layerId = "1F735D37-B4CA-40B6-B90B-0360E7E97D88";
name = Regular;
paths = (
{
closed = 1;
nodes = (
"128 512 LINE",
"128 576 LINE",
"128 640 LINE",
"128 704 LINE",
"192 704 LINE",
"192 640 LINE",
"192 576 LINE",
"192 512 LINE"
);
},
{
closed = 1;
nodes = (
"0 512 LINE",
"0 576 LINE",
"0 640 LINE",
"0 704 LINE",
"64 704 LINE",
"64 640 LINE",
"64 576 LINE",
"64 512 LINE"
);
}
);
width = 320;
}
);
unicode = 0022;
},
{
glyphname = numbersign;
layers = (
{
layerId = "1F735D37-B4CA-40B6-B90B-0360E7E97D88";
name = Regular;
paths = (
{
closed = 1;
nodes = (
"256 0 LINE",
"256 64 LINE",
"256 128 LINE",
"192 128 LINE",
"128 128 LINE",
"128 64 LINE",
"128 0 LINE",
"64 0 LINE",
"64 64 LINE",
"64 128 LINE",
"0 128 LINE",
"0 192 LINE",
"64 192 LINE",
"64 256 LINE",
"64 320 LINE",
"64 384 LINE",
"64 448 LINE",
"0 448 LINE",
"0 512 LINE",
"64 512 LINE",
"64 576 LINE",
"64 640 LINE",
"64 704 LINE",
"128 704 LINE",
"128 640 LINE",
"128 576 LINE",
"128 512 LINE",
"192 512 LINE",
"256 512 LINE",
"256 576 LINE",
"256 640 LINE",
"256 704 LINE",
"320 704 LINE",
"320 640 LINE",
"320 576 LINE",
"320 512 LINE",
"384 512 LINE",
"384 448 LINE",
"320 448 LINE",
"320 384 LINE",
"320 320 LINE",
"320 256 LINE",
"320 192 LINE",
"384 192 LINE",
"384 128 LINE",
"320 128 LINE",
"320 64 LINE",
"320 0 LINE"
);
},
{
closed = 1;
nodes = (
"192 192 LINE",
"256 192 LINE",
"256 256 LINE",
"256 320 LINE",
"256 384 LINE",
"256 448 LINE",
"192 448 LINE",
"128 448 LINE",
"128 384 LINE",
"128 320 LINE",
"128 256 LINE",
"128 192 LINE"
);
}
);
width = 512;
}
);
unicode = 0023;
},
{
glyphname = dollar;
layers = (
{
layerId = "1F735D37-B4CA-40B6-B90B-0360E7E97D88";
name = Regular;
paths = (
{
closed = 1;
nodes = (
"128 0 LINE",
"128 64 LINE",
"64 64 LINE",
"0 64 LINE",
"0 128 LINE",
"64 128 LINE",
"128 128 LINE",
"192 128 LINE",
"256 128 LINE",
"256 192 LINE",
"256 256 LINE",
"256 320 LINE",
"192 320 LINE",
"128 320 LINE",
"64 320 LINE",
"0 320 LINE",
"0 384 LINE",
"0 448 LINE",
"0 512 LINE",
"0 576 LINE",
"0 640 LINE",
"64 640 LINE",
"128 640 LINE",
"128 704 LINE",
"192 704 LINE",
"192 640 LINE",
"256 640 LINE",
"320 640 LINE",
"320 576 LINE",
"256 576 LINE",
"192 576 LINE",
"128 576 LINE",
"64 576 LINE",
"64 512 LINE",
"64 448 LINE",
"64 384 LINE",
"128 384 LINE",
"192 384 LINE",
"256 384 LINE",
"320 384 LINE",
"320 320 LINE",
"320 256 LINE",
"320 192 LINE",
"320 128 LINE",
"320 64 LINE",
"256 64 LINE",
"192 64 LINE",
"192 0 LINE"
);
}
);
width = 448;
}
);
unicode = 0024;
},
{
glyphname = percent;
lastChange = "2014-09-28 16:09:51 -0800";
layers = (
{
layerId = "1F735D37-B4CA-40B6-B90B-0360E7E97D88";
name = Regular;
paths = (
{
closed = 1;
nodes = (
"256 64 LINE",
"192 64 LINE",
"192 128 LINE",
"192 192 LINE",
"256 192 LINE",
"320 192 LINE",
"320 128 LINE",
"320 64 LINE"
);
},
{
closed = 1;
nodes = (
"64 576 LINE",
"0 576 LINE",
"0 640 LINE",
"0 704 LINE",
"64 704 LINE",
"128 704 LINE",
"128 640 LINE",
"128 576 LINE"
);
},
{
closed = 1;
nodes = (
"3 66 LINE",
"3 66 LINE",
"268 699 LINE",
"325 699 LINE",
"67 66 LINE SMOOTH"
);
}
);
width = 448;
}
);
unicode = 0025;
},
{
glyphname = ampersand;
layers = (
{
layerId = "1F735D37-B4CA-40B6-B90B-0360E7E97D88";
name = Regular;
paths = (
{
closed = 1;
nodes = (
"256 0 LINE",
"192 0 LINE",
"128 0 LINE",
"64 0 LINE",
"0 0 LINE",
"0 64 LINE",
"0 128 LINE",
"0 192 LINE",
"0 256 LINE",
"64 256 LINE",
"64 192 LINE",
"64 128 LINE",
"64 64 LINE",
"128 64 LINE",
"192 64 LINE",
"256 64 LINE",
"256 128 LINE",
"256 192 LINE",
"256 256 LINE",
"192 256 LINE",
"192 320 LINE",
"256 320 LINE",
"320 320 LINE",
"320 256 LINE",
"320 192 LINE",
"384 192 LINE",
"384 128 LINE",
"320 128 LINE",
"320 64 LINE",
"320 0 LINE"
);
},
{
closed = 1;
nodes = (
"64 256 LINE",
"64 320 LINE",
"128 320 LINE",
"128 256 LINE"
);
},
{
closed = 1;
nodes = (
"192 320 LINE",
"128 320 LINE",
"128 384 LINE",
"192 384 LINE"
);
},
{
closed = 1;
nodes = (
"192 384 LINE",
"192 448 LINE",
"256 448 LINE",
"256 384 LINE"
);
},
{
closed = 1;
nodes = (
"128 384 LINE",
"64 384 LINE",
"64 448 LINE",
"128 448 LINE"
);
},
{
closed = 1;
nodes = (
"256 448 LINE",
"256 512 LINE",
"256 576 LINE",
"256 640 LINE",
"192 640 LINE",
"128 640 LINE",
"64 640 LINE",
"64 576 LINE",
"64 512 LINE",
"64 448 LINE",
"0 448 LINE",
"0 512 LINE",
"0 576 LINE",
"0 640 LINE",
"0 704 LINE",
"64 704 LINE",
"128 704 LINE",
"192 704 LINE",
"256 704 LINE",
"320 704 LINE",
"320 640 LINE",
"320 576 LINE",
"320 512 LINE",
"320 448 LINE"
);
}
);
width = 512;
}
);
unicode = 0026;
},
{
glyphname = quotesingle;
layers = (
{
layerId = "1F735D37-B4CA-40B6-B90B-0360E7E97D88";
name = Regular;
paths = (
{
closed = 1;
nodes = (
"0 576 LINE",
"0 640 LINE",
"0 704 LINE",
"64 704 LINE",
"64 640 LINE",
"64 576 LINE"
);
}
);
width = 192;
}
);
unicode = 0027;
},
{
glyphname = parenleft;
layers = (
{
layerId = "1F735D37-B4CA-40B6-B90B-0360E7E97D88";
name = Regular;
paths = (
{
closed = 1;
nodes = (
"64 0 LINE",
"64 64 LINE",
"128 64 LINE",
"128 0 LINE"
);
},
{
closed = 1;
nodes = (
"64 64 LINE",
"0 64 LINE",
"0 128 LINE",
"0 192 LINE",
"0 256 LINE",
"0 320 LINE",
"0 384 LINE",
"0 448 LINE",
"0 512 LINE",
"0 576 LINE",
"0 640 LINE",
"64 640 LINE",
"64 576 LINE",
"64 512 LINE",
"64 448 LINE",
"64 384 LINE",
"64 320 LINE",
"64 256 LINE",
"64 192 LINE",
"64 128 LINE"
);
},
{
closed = 1;
nodes = (
"64 640 LINE",
"64 704 LINE",
"128 704 LINE",
"128 640 LINE"
);
}
);
width = 256;
}
);
unicode = 0028;
},
{
glyphname = parenright;
layers = (
{
layerId = "1F735D37-B4CA-40B6-B90B-0360E7E97D88";
name = Regular;
paths = (
{
closed = 1;
nodes = (
"0 0 LINE",
"0 64 LINE",
"64 64 LINE",
"64 0 LINE"
);
},
{
closed = 1;
nodes = (
"64 64 LINE",
"64 128 LINE",
"64 192 LINE",
"64 256 LINE",
"64 320 LINE",
"64 384 LINE",
"64 448 LINE",
"64 512 LINE",
"64 576 LINE",
"64 640 LINE",
"128 640 LINE",
"128 576 LINE",
"128 512 LINE",
"128 448 LINE",
"128 384 LINE",
"128 320 LINE",
"128 256 LINE",
"128 192 LINE",
"128 128 LINE",
"128 64 LINE"
);
},
{
closed = 1;
nodes = (
"64 640 LINE",
"0 640 LINE",
"0 704 LINE",
"64 704 LINE"
);
}
);
width = 256;
}
);
unicode = 0029;
},
{
glyphname = asterisk;
layers = (
{
layerId = "1F735D37-B4CA-40B6-B90B-0360E7E97D88";
name = Regular;
paths = (
{
closed = 1;
nodes = (
"128 512 LINE",
"128 576 LINE",
"192 576 LINE",
"192 512 LINE"
);
},
{
closed = 1;
nodes = (
"0 512 LINE",
"0 576 LINE",
"64 576 LINE",
"64 512 LINE"
);
},
{
closed = 1;
nodes = (
"128 576 LINE",
"64 576 LINE",
"64 640 LINE",
"128 640 LINE"
);
},
{
closed = 1;
nodes = (
"128 640 LINE",
"128 704 LINE",
"192 704 LINE",
"192 640 LINE"
);
},
{
closed = 1;
nodes = (
"64 640 LINE",
"0 640 LINE",
"0 704 LINE",
"64 704 LINE"
);
}
);
width = 320;
}
);
unicode = 002A;
},
{
glyphname = plus;
layers = (
{
layerId = "1F735D37-B4CA-40B6-B90B-0360E7E97D88";
name = Regular;
paths = (
{
closed = 1;
nodes = (
"192 0 LINE",
"192 64 LINE",
"192 128 LINE",
"192 192 LINE",
"192 256 LINE",
"128 256 LINE",
"64 256 LINE",
"0 256 LINE",
"0 320 LINE",
"64 320 LINE",
"128 320 LINE",
"192 320 LINE",
"192 384 LINE",
"192 448 LINE",
"192 512 LINE",
"256 512 LINE",
"256 448 LINE",
"256 384 LINE",
"256 320 LINE",
"320 320 LINE",
"384 320 LINE",
"448 320 LINE",
"448 256 LINE",
"384 256 LINE",
"320 256 LINE",
"256 256 LINE",
"256 192 LINE",
"256 128 LINE",
"256 64 LINE",
"256 0 LINE"
);
}
);
width = 576;
}
);
unicode = 002B;
},
{
glyphname = comma;
layers = (
{
layerId = "1F735D37-B4CA-40B6-B90B-0360E7E97D88";
name = Regular;
paths = (
{
closed = 1;
nodes = (
"0 -128 LINE",
"0 -64 LINE",
"0 0 LINE",
"0 64 LINE",
"64 64 LINE",
"64 0 LINE",
"64 -64 LINE",
"64 -128 LINE"
);
}
);
width = 192;
}
);
unicode = 002C;
},
{
glyphname = hyphen;
layers = (
{
layerId = "1F735D37-B4CA-40B6-B90B-0360E7E97D88";
name = Regular;
paths = (
{
closed = 1;
nodes = (
"256 320 LINE",
"320 320 LINE",
"320 256 LINE",
"256 256 LINE",
"192 256 LINE",
"128 256 LINE",
"64 256 LINE",
"0 256 LINE",
"0 320 LINE",
"64 320 LINE",
"128 320 LINE",
"192 320 LINE"
);
}
);
width = 448;
}
);
unicode = 002D;
},
{
glyphname = period;
layers = (
{
layerId = "1F735D37-B4CA-40B6-B90B-0360E7E97D88";
name = Regular;
paths = (
{
closed = 1;
nodes = (
"0 0 LINE",
"0 64 LINE",
"64 64 LINE",
"64 0 LINE"
);
}
);
width = 192;
}
);
unicode = 002E;
},
{
glyphname = slash;
lastChange = "2014-09-28 15:46:12 -0800";
layers = (
{
guideLines = (
{
position = "{322, 697}";
},
{
position = "{369, 577}";
},
{
position = "{2, 65}";
}
);
hints = (
{
place = "{211.570312, 0.000000}";
}
);
layerId = "1F735D37-B4CA-40B6-B90B-0360E7E97D88";
name = Regular;
paths = (
{
closed = 1;
nodes = (
"0 64 LINE",
"0 64 LINE",
"265 697 LINE",
"322 697 LINE",
"64 64 LINE SMOOTH"
);
}
);
width = 448;
}
);
unicode = 002F;
},
{
glyphname = zero;
lastChange = "2014-09-28 15:16:22 -0800";
layers = (
{
hints = (
{
horizontal = 1;
place = "{384.000000, -20.000000}";
target = down;
type = TopGhost;
}
);
layerId = "1F735D37-B4CA-40B6-B90B-0360E7E97D88";
name = Regular;
paths = (
{
closed = 1;
nodes = (
"256 0 LINE",
"192 0 LINE",
"128 0 LINE",
"64 0 LINE",
"0 0 LINE",
"0 64 LINE",
"0 128 LINE",
"0 192 LINE",
"0 256 LINE",
"0 320 LINE",
"0 384 LINE",
"0 448 LINE",
"0 512 LINE",
"0 576 LINE",
"0 640 LINE",
"0 704 LINE",
"64 704 LINE",
"128 704 LINE",
"192 704 LINE",
"256 704 LINE",
"320 704 LINE",
"320 640 LINE",
"320 576 LINE",
"320 512 LINE",
"320 448 LINE",
"320 384 LINE",
"320 320 LINE",
"320 256 LINE",
"320 192 LINE",
"320 128 LINE",
"320 64 LINE",
"320 0 LINE"
);
},
{
closed = 1;
nodes = (
"192 64 LINE",
"256 64 LINE",
"256 128 LINE",
"256 192 LINE",
"256 640 LINE",
"64 640 LINE",
"64 320 LINE",
"64 256 LINE",
"64 192 LINE",
"64 128 LINE",
"64 64 LINE",
"128 64 LINE"
);
}
);
width = 448;
}
);
unicode = 0030;
},
{
glyphname = one;
layers = (
{
layerId = "1F735D37-B4CA-40B6-B90B-0360E7E97D88";
name = Regular;
paths = (
{
closed = 1;
nodes = (
"64 0 LINE",
"64 64 LINE",
"64 128 LINE",
"64 192 LINE",
"64 256 LINE",
"64 320 LINE",
"64 384 LINE",
"64 448 LINE",
"64 512 LINE",
"64 576 LINE",
"64 640 LINE",
"0 640 LINE",
"0 704 LINE",
"64 704 LINE",
"128 704 LINE",
"128 640 LINE",
"128 576 LINE",
"128 512 LINE",
"128 448 LINE",
"128 384 LINE",
"128 320 LINE",
"128 256 LINE",
"128 192 LINE",
"128 128 LINE",
"128 64 LINE",
"128 0 LINE"
);
}
);
width = 256;
}
);
unicode = 0031;
},
{
glyphname = two;
layers = (
{
layerId = "1F735D37-B4CA-40B6-B90B-0360E7E97D88";
name = Regular;
paths = (
{
closed = 1;
nodes = (
"256 64 LINE",
"320 64 LINE",
"320 0 LINE",
"256 0 LINE",
"192 0 LINE",
"128 0 LINE",
"64 0 LINE",
"0 0 LINE",
"0 64 LINE",
"0 128 LINE",
"0 192 LINE",
"0 256 LINE",
"0 320 LINE",
"64 320 LINE",
"64 256 LINE",
"64 192 LINE",
"64 128 LINE",
"64 64 LINE",
"128 64 LINE",
"192 64 LINE"
);
},
{
closed = 1;
nodes = (
"256 320 LINE",
"192 320 LINE",
"128 320 LINE",
"64 320 LINE",
"64 384 LINE",
"128 384 LINE",
"192 384 LINE",
"256 384 LINE",
"256 448 LINE",
"256 512 LINE",
"256 576 LINE",
"256 640 LINE",
"192 640 LINE",
"128 640 LINE",
"64 640 LINE",
"0 640 LINE",
"0 704 LINE",
"64 704 LINE",
"128 704 LINE",
"192 704 LINE",
"256 704 LINE",
"320 704 LINE",
"320 640 LINE",
"320 576 LINE",
"320 512 LINE",
"320 448 LINE",
"320 384 LINE",
"320 320 LINE"
);
}
);
width = 448;
}
);
unicode = 0032;
},
{
glyphname = three;
layers = (
{
layerId = "1F735D37-B4CA-40B6-B90B-0360E7E97D88";
name = Regular;
paths = (
{
closed = 1;
nodes = (
"256 0 LINE",
"192 0 LINE",
"128 0 LINE",
"64 0 LINE",
"0 0 LINE",
"0 64 LINE",
"64 64 LINE",
"128 64 LINE",
"192 64 LINE",
"256 64 LINE",
"256 128 LINE",
"256 192 LINE",
"256 256 LINE",
"256 320 LINE",
"192 320 LINE",
"128 320 LINE",
"128 384 LINE",
"192 384 LINE",
"256 384 LINE",
"256 448 LINE",
"256 512 LINE",
"256 576 LINE",
"256 640 LINE",
"192 640 LINE",
"128 640 LINE",
"64 640 LINE",
"0 640 LINE",
"0 704 LINE",
"64 704 LINE",
"128 704 LINE",
"192 704 LINE",
"256 704 LINE",
"320 704 LINE",
"320 640 LINE",
"320 576 LINE",
"320 512 LINE",
"320 448 LINE",
"320 384 LINE",
"320 320 LINE",
"320 256 LINE",
"320 192 LINE",
"320 128 LINE",
"320 64 LINE",
"320 0 LINE"
);
}
);
width = 448;
}
);
unicode = 0033;
},
{
glyphname = four;
layers = (
{
layerId = "1F735D37-B4CA-40B6-B90B-0360E7E97D88";
name = Regular;
paths = (
{
closed = 1;
nodes = (
"256 0 LINE",
"256 64 LINE",
"256 128 LINE",
"256 192 LINE",
"256 256 LINE",
"256 320 LINE",
"192 320 LINE",
"128 320 LINE",
"64 320 LINE",
"0 320 LINE",
"0 384 LINE",
"0 448 LINE",
"0 512 LINE",
"0 576 LINE",
"0 640 LINE",
"0 704 LINE",
"64 704 LINE",
"64 640 LINE",
"64 576 LINE",
"64 512 LINE",
"64 448 LINE",
"64 384 LINE",
"128 384 LINE",
"192 384 LINE",
"256 384 LINE",
"256 448 LINE",
"256 512 LINE",
"256 576 LINE",
"256 640 LINE",
"256 704 LINE",
"320 704 LINE",
"320 640 LINE",
"320 576 LINE",
"320 512 LINE",
"320 448 LINE",
"320 384 LINE",
"320 320 LINE",
"320 256 LINE",
"320 192 LINE",
"320 128 LINE",
"320 64 LINE",
"320 0 LINE"
);
}
);
width = 448;
}
);
unicode = 0034;
},
{
glyphname = five;
layers = (
{
layerId = "1F735D37-B4CA-40B6-B90B-0360E7E97D88";
name = Regular;
paths = (
{
closed = 1;
nodes = (
"256 0 LINE",
"192 0 LINE",
"128 0 LINE",
"64 0 LINE",
"0 0 LINE",
"0 64 LINE",
"64 64 LINE",
"128 64 LINE",
"192 64 LINE",
"256 64 LINE",
"256 128 LINE",
"256 192 LINE",
"256 256 LINE",
"256 320 LINE",
"320 320 LINE",
"320 256 LINE",
"320 192 LINE",
"320 128 LINE",
"320 64 LINE",
"320 0 LINE"
);
},
{
closed = 1;
nodes = (
"256 320 LINE",
"192 320 LINE",
"128 320 LINE",
"64 320 LINE",
"0 320 LINE",
"0 384 LINE",
"0 448 LINE",
"0 512 LINE",
"0 576 LINE",
"0 640 LINE",
"0 704 LINE",
"64 704 LINE",
"128 704 LINE",
"192 704 LINE",
"256 704 LINE",
"320 704 LINE",
"320 640 LINE",
"256 640 LINE",
"192 640 LINE",
"128 640 LINE",
"64 640 LINE",
"64 576 LINE",
"64 512 LINE",
"64 448 LINE",
"64 384 LINE",
"128 384 LINE",
"192 384 LINE",
"256 384 LINE"
);
}
);
width = 448;
}
);
unicode = 0035;
},
{
glyphname = six;
layers = (
{
layerId = "1F735D37-B4CA-40B6-B90B-0360E7E97D88";
name = Regular;
paths = (
{
closed = 1;
nodes = (
"256 0 LINE",
"192 0 LINE",
"128 0 LINE",
"64 0 LINE",
"0 0 LINE",
"0 64 LINE",
"0 128 LINE",
"0 192 LINE",
"0 256 LINE",
"0 320 LINE",
"0 384 LINE",
"0 448 LINE",
"0 512 LINE",
"0 576 LINE",
"0 640 LINE",
"0 704 LINE",
"64 704 LINE",
"128 704 LINE",
"192 704 LINE",
"256 704 LINE",
"320 704 LINE",
"320 640 LINE",
"256 640 LINE",
"192 640 LINE",
"128 640 LINE",
"64 640 LINE",
"64 576 LINE",
"64 512 LINE",
"64 448 LINE",
"64 384 LINE",
"128 384 LINE",
"192 384 LINE",
"256 384 LINE",
"320 384 LINE",
"320 320 LINE",
"320 256 LINE",
"320 192 LINE",
"320 128 LINE",
"320 64 LINE",
"320 0 LINE"
);
},
{
closed = 1;
nodes = (
"192 64 LINE",
"256 64 LINE",
"256 128 LINE",
"256 192 LINE",
"256 256 LINE",
"256 320 LINE",
"192 320 LINE",
"128 320 LINE",
"64 320 LINE",
"64 256 LINE",
"64 192 LINE",
"64 128 LINE",
"64 64 LINE",
"128 64 LINE"
);
}
);
width = 448;
}
);
unicode = 0036;
},
{
glyphname = seven;
lastChange = "2014-09-28 15:20:12 -0800";
layers = (
{
layerId = "1F735D37-B4CA-40B6-B90B-0360E7E97D88";
name = Regular;
paths = (
{
closed = 1;
nodes = (
"128 0 LINE",
"128 64 LINE",
"128 128 LINE",
"128 192 LINE",
"128 256 LINE",
"128 320 LINE",
"192 297 LINE",
"192 256 LINE",
"192 192 LINE",
"192 128 LINE",
"192 64 LINE",
"192 0 LINE"
);
},
{
closed = 1;
nodes = (
"128 320 LINE",
"256 403 LINE",
"320 384 LINE",
"192 297 LINE"
);
},
{
closed = 1;
nodes = (
"256 384 LINE",
"256 448 LINE",
"256 512 LINE",
"256 576 LINE",
"256 640 LINE",
"192 640 LINE",
"128 640 LINE",
"64 640 LINE",
"0 640 LINE",
"0 704 LINE",
"64 704 LINE",
"128 704 LINE",
"192 704 LINE",
"256 704 LINE",
"320 704 LINE",
"320 640 LINE",
"320 576 LINE",
"320 512 LINE",
"320 448 LINE",
"320 384 LINE"
);
}
);
width = 448;
}
);
unicode = 0037;
},
{
glyphname = eight;
layers = (
{
layerId = "1F735D37-B4CA-40B6-B90B-0360E7E97D88";
name = Regular;
paths = (
{
closed = 1;
nodes = (
"256 0 LINE",
"192 0 LINE",
"128 0 LINE",
"64 0 LINE",
"0 0 LINE",
"0 64 LINE",
"0 128 LINE",
"0 192 LINE",
"0 256 LINE",
"0 320 LINE",
"0 384 LINE",
"0 448 LINE",
"0 512 LINE",
"0 576 LINE",
"0 640 LINE",
"0 704 LINE",
"64 704 LINE",
"128 704 LINE",
"192 704 LINE",
"256 704 LINE",
"320 704 LINE",
"320 640 LINE",
"320 576 LINE",
"320 512 LINE",
"320 448 LINE",
"320 384 LINE",
"320 320 LINE",
"320 256 LINE",
"320 192 LINE",
"320 128 LINE",
"320 64 LINE",
"320 0 LINE"
);
},
{
closed = 1;
nodes = (
"192 64 LINE",
"256 64 LINE",
"256 128 LINE",
"256 192 LINE",
"256 256 LINE",
"256 320 LINE",
"192 320 LINE",
"128 320 LINE",
"64 320 LINE",
"64 256 LINE",
"64 192 LINE",
"64 128 LINE",
"64 64 LINE",
"128 64 LINE"
);
},
{
closed = 1;
nodes = (
"192 384 LINE",
"256 384 LINE",
"256 448 LINE",
"256 512 LINE",
"256 576 LINE",
"256 640 LINE",
"192 640 LINE",
"128 640 LINE",
"64 640 LINE",
"64 576 LINE",
"64 512 LINE",
"64 448 LINE",
"64 384 LINE",
"128 384 LINE"
);
}
);
width = 448;
}
);
unicode = 0038;
},
{
glyphname = nine;
layers = (
{
layerId = "1F735D37-B4CA-40B6-B90B-0360E7E97D88";
name = Regular;
paths = (
{
closed = 1;
nodes = (
"256 0 LINE",
"192 0 LINE",
"128 0 LINE",
"64 0 LINE",
"0 0 LINE",
"0 64 LINE",
"64 64 LINE",
"128 64 LINE",
"192 64 LINE",
"256 64 LINE",
"256 128 LINE",
"256 192 LINE",
"256 256 LINE",
"256 320 LINE",
"192 320 LINE",
"128 320 LINE",
"64 320 LINE",
"0 320 LINE",
"0 384 LINE",
"0 448 LINE",
"0 512 LINE",
"0 576 LINE",
"0 640 LINE",
"0 704 LINE",
"64 704 LINE",
"128 704 LINE",
"192 704 LINE",
"256 704 LINE",
"320 704 LINE",
"320 640 LINE",
"320 576 LINE",
"320 512 LINE",
"320 448 LINE",
"320 384 LINE",
"320 320 LINE",
"320 256 LINE",
"320 192 LINE",
"320 128 LINE",
"320 64 LINE",
"320 0 LINE"
);
},
{
closed = 1;
nodes = (
"192 384 LINE",
"256 384 LINE",
"256 448 LINE",
"256 512 LINE",
"256 576 LINE",
"256 640 LINE",
"192 640 LINE",
"128 640 LINE",
"64 640 LINE",
"64 576 LINE",
"64 512 LINE",
"64 448 LINE",
"64 384 LINE",
"128 384 LINE"
);
}
);
width = 448;
}
);
unicode = 0039;
},
{
glyphname = colon;
layers = (
{
layerId = "1F735D37-B4CA-40B6-B90B-0360E7E97D88";
name = Regular;
paths = (
{
closed = 1;
nodes = (
"0 0 LINE",
"0 64 LINE",
"64 64 LINE",
"64 0 LINE"
);
},
{
closed = 1;
nodes = (
"0 320 LINE",
"0 384 LINE",
"64 384 LINE",
"64 320 LINE"
);
}
);
width = 192;
}
);
unicode = 003A;
},
{
glyphname = semicolon;
layers = (
{
layerId = "1F735D37-B4CA-40B6-B90B-0360E7E97D88";
name = Regular;
paths = (
{
closed = 1;
nodes = (
"0 -128 LINE",
"0 -64 LINE",
"0 0 LINE",
"0 64 LINE",
"64 64 LINE",
"64 0 LINE",
"64 -64 LINE",
"64 -128 LINE"
);
},
{
closed = 1;
nodes = (
"0 256 LINE",
"0 320 LINE",
"64 320 LINE",
"64 256 LINE"
);
}
);
width = 192;
}
);
unicode = 003B;
},
{
glyphname = less;
layers = (
{
layerId = "1F735D37-B4CA-40B6-B90B-0360E7E97D88";
name = Regular;
paths = (
{
closed = 1;
nodes = (
"192 0 LINE",
"192 64 LINE",
"256 64 LINE",
"256 0 LINE"
);
},
{
closed = 1;
nodes = (
"192 64 LINE",
"128 64 LINE",
"128 128 LINE",
"192 128 LINE"
);
},
{
closed = 1;
nodes = (
"128 128 LINE",
"64 128 LINE",
"64 192 LINE",
"128 192 LINE"
);
},
{
closed = 1;
nodes = (
"64 192 LINE",
"0 192 LINE",
"0 256 LINE",
"64 256 LINE"
);
},
{
closed = 1;
nodes = (
"64 256 LINE",
"64 320 LINE",
"128 320 LINE",
"128 256 LINE"
);
},
{
closed = 1;
nodes = (
"128 320 LINE",
"128 384 LINE",
"192 384 LINE",
"192 320 LINE"
);
},
{
closed = 1;
nodes = (
"192 384 LINE",
"192 448 LINE",
"256 448 LINE",
"256 384 LINE"
);
}
);
width = 384;
}
);
unicode = 003C;
},
{
glyphname = equal;
layers = (
{
layerId = "1F735D37-B4CA-40B6-B90B-0360E7E97D88";
name = Regular;
paths = (
{
closed = 1;
nodes = (
"256 256 LINE",
"320 256 LINE",
"320 192 LINE",
"256 192 LINE",
"192 192 LINE",
"128 192 LINE",
"64 192 LINE",
"0 192 LINE",
"0 256 LINE",
"64 256 LINE",
"128 256 LINE",
"192 256 LINE"
);
},
{
closed = 1;
nodes = (
"256 384 LINE",
"320 384 LINE",
"320 320 LINE",
"256 320 LINE",
"192 320 LINE",
"128 320 LINE",
"64 320 LINE",
"0 320 LINE",
"0 384 LINE",
"64 384 LINE",
"128 384 LINE",
"192 384 LINE"
);
}
);
width = 448;
}
);
unicode = 003D;
},
{
glyphname = greater;
layers = (
{
layerId = "1F735D37-B4CA-40B6-B90B-0360E7E97D88";
name = Regular;
paths = (
{
closed = 1;
nodes = (
"0 0 LINE",
"0 64 LINE",
"64 64 LINE",
"64 0 LINE"
);
},
{
closed = 1;
nodes = (
"64 64 LINE",
"64 128 LINE",
"128 128 LINE",
"128 64 LINE"
);
},
{
closed = 1;
nodes = (
"128 128 LINE",
"128 192 LINE",
"192 192 LINE",
"192 128 LINE"
);
},
{
closed = 1;
nodes = (
"192 192 LINE",
"192 256 LINE",
"256 256 LINE",
"256 192 LINE"
);
},
{
closed = 1;
nodes = (
"192 256 LINE",
"128 256 LINE",
"128 320 LINE",
"192 320 LINE"
);
},
{
closed = 1;
nodes = (
"128 320 LINE",
"64 320 LINE",
"64 384 LINE",
"128 384 LINE"
);
},
{
closed = 1;
nodes = (
"64 384 LINE",
"0 384 LINE",
"0 448 LINE",
"64 448 LINE"
);
}
);
width = 384;
}
);
unicode = 003E;
},
{
glyphname = question;
layers = (
{
layerId = "1F735D37-B4CA-40B6-B90B-0360E7E97D88";
name = Regular;
paths = (
{
closed = 1;
nodes = (
"128 0 LINE",
"128 64 LINE",
"192 64 LINE",
"192 0 LINE"
);
},
{
closed = 1;
nodes = (
"128 192 LINE",
"128 256 LINE",
"128 320 LINE",
"192 320 LINE",
"192 256 LINE",
"192 192 LINE"
);
},
{
closed = 1;
nodes = (
"0 576 LINE",
"0 640 LINE",
"0 704 LINE",
"64 704 LINE",
"128 704 LINE",
"192 704 LINE",
"256 704 LINE",
"320 704 LINE",
"320 640 LINE",
"320 576 LINE",
"320 512 LINE",
"320 448 LINE",
"320 384 LINE",
"256 384 LINE",
"256 320 LINE",
"192 320 LINE",
"192 384 LINE",
"256 384 LINE",
"256 448 LINE",
"256 512 LINE",
"256 576 LINE",
"256 640 LINE",
"192 640 LINE",
"128 640 LINE",
"64 640 LINE",
"64 576 LINE"
);
}
);
width = 448;
}
);
unicode = 003F;
},
{
glyphname = A;
layers = (
{
layerId = "1F735D37-B4CA-40B6-B90B-0360E7E97D88";
name = Regular;
paths = (
{
closed = 1;
nodes = (
"256 0 LINE",
"256 64 LINE",
"256 128 LINE",
"256 192 LINE",
"256 256 LINE",
"256 320 LINE",
"192 320 LINE",
"128 320 LINE",
"64 320 LINE",
"64 256 LINE",
"64 192 LINE",
"64 128 LINE",
"64 64 LINE",
"64 0 LINE",
"0 0 LINE",
"0 64 LINE",
"0 128 LINE",
"0 192 LINE",
"0 256 LINE",
"0 320 LINE",
"0 384 LINE",
"0 448 LINE",
"0 512 LINE",
"0 576 LINE",
"0 640 LINE",
"0 704 LINE",
"64 704 LINE",
"128 704 LINE",
"192 704 LINE",
"256 704 LINE",
"320 704 LINE",
"320 640 LINE",
"320 576 LINE",
"320 512 LINE",
"320 448 LINE",
"320 384 LINE",
"320 320 LINE",
"320 256 LINE",
"320 192 LINE",
"320 128 LINE",
"320 64 LINE",
"320 0 LINE"
);
},
{
closed = 1;
nodes = (
"192 384 LINE",
"256 384 LINE",
"256 448 LINE",
"256 512 LINE",
"256 576 LINE",
"256 640 LINE",
"192 640 LINE",
"128 640 LINE",
"64 640 LINE",
"64 576 LINE",
"64 512 LINE",
"64 448 LINE",
"64 384 LINE",
"128 384 LINE"
);
}
);
width = 448;
}
);
unicode = 0041;
},
{
glyphname = B;
layers = (
{
layerId = "1F735D37-B4CA-40B6-B90B-0360E7E97D88";
name = Regular;
paths = (
{
closed = 1;
nodes = (
"256 0 LINE",
"192 0 LINE",
"128 0 LINE",
"64 0 LINE",
"0 0 LINE",
"0 64 LINE",
"0 128 LINE",
"0 192 LINE",
"0 256 LINE",
"0 320 LINE",
"0 384 LINE",
"0 448 LINE",
"0 512 LINE",
"0 576 LINE",
"0 640 LINE",
"0 704 LINE",
"64 704 LINE",
"128 704 LINE",
"192 704 LINE",
"256 704 LINE",
"320 704 LINE",
"320 640 LINE",
"320 576 LINE",
"320 512 LINE",
"320 448 LINE",
"320 384 LINE",
"256 384 LINE",
"256 448 LINE",
"256 512 LINE",
"256 576 LINE",
"256 640 LINE",
"192 640 LINE",
"128 640 LINE",
"64 640 LINE",
"64 576 LINE",
"64 512 LINE",
"64 448 LINE",
"64 384 LINE",
"128 384 LINE",
"192 384 LINE",
"256 384 LINE",
"256 320 LINE",
"192 320 LINE",
"128 320 LINE",
"64 320 LINE",
"64 256 LINE",
"64 192 LINE",
"64 128 LINE",
"64 64 LINE",
"128 64 LINE",
"192 64 LINE",
"256 64 LINE",
"256 128 LINE",
"256 192 LINE",
"256 256 LINE",
"256 320 LINE",
"320 320 LINE",
"320 256 LINE",
"320 192 LINE",
"320 128 LINE",
"320 64 LINE",
"320 0 LINE"
);
}
);
width = 448;
}
);
unicode = 0042;
},
{
glyphname = C;
layers = (
{
layerId = "1F735D37-B4CA-40B6-B90B-0360E7E97D88";
name = Regular;
paths = (
{
closed = 1;
nodes = (
"256 64 LINE",
"320 64 LINE",
"320 0 LINE",
"256 0 LINE",
"192 0 LINE",
"128 0 LINE",
"64 0 LINE",
"0 0 LINE",
"0 64 LINE",
"0 128 LINE",
"0 192 LINE",
"0 256 LINE",
"0 320 LINE",
"0 384 LINE",
"0 448 LINE",
"0 512 LINE",
"0 576 LINE",
"0 640 LINE",
"0 704 LINE",
"64 704 LINE",
"128 704 LINE",
"192 704 LINE",
"256 704 LINE",
"320 704 LINE",
"320 640 LINE",
"256 640 LINE",
"192 640 LINE",
"128 640 LINE",
"64 640 LINE",
"64 576 LINE",
"64 512 LINE",
"64 448 LINE",
"64 384 LINE",
"64 320 LINE",
"64 256 LINE",
"64 192 LINE",
"64 128 LINE",
"64 64 LINE",
"128 64 LINE",
"192 64 LINE"
);
}
);
width = 448;
}
);
unicode = 0043;
},
{
glyphname = D;
layers = (
{
layerId = "1F735D37-B4CA-40B6-B90B-0360E7E97D88";
name = Regular;
paths = (
{
closed = 1;
nodes = (
"192 64 LINE",
"256 64 LINE",
"256 128 LINE",
"256 192 LINE",
"256 256 LINE",
"256 320 LINE",
"256 384 LINE",
"256 448 LINE",
"256 512 LINE",
"256 576 LINE",
"256 640 LINE",
"192 640 LINE",
"128 640 LINE",
"64 640 LINE",
"64 576 LINE",
"64 512 LINE",
"64 448 LINE",
"64 384 LINE",
"64 320 LINE",
"64 256 LINE",
"64 192 LINE",
"64 128 LINE",
"64 64 LINE",
"128 64 LINE"
);
},
{
closed = 1;
nodes = (
"192 0 LINE",
"128 0 LINE",
"64 0 LINE",
"0 0 LINE",
"0 64 LINE",
"0 128 LINE",
"0 192 LINE",
"0 256 LINE",
"0 320 LINE",
"0 384 LINE",
"0 448 LINE",
"0 512 LINE",
"0 576 LINE",
"0 640 LINE",
"0 704 LINE",
"64 704 LINE",
"128 704 LINE",
"192 704 LINE",
"256 704 LINE",
"256 640 LINE",
"320 640 LINE",
"320 576 LINE",
"320 512 LINE",
"320 448 LINE",
"320 384 LINE",
"320 320 LINE",
"320 256 LINE",
"320 192 LINE",
"320 128 LINE",
"320 64 LINE",
"256 64 LINE",
"256 0 LINE"
);
}
);
width = 448;
}
);
unicode = 0044;
},
{
glyphname = E;
layers = (
{
layerId = "1F735D37-B4CA-40B6-B90B-0360E7E97D88";
name = Regular;
paths = (
{
closed = 1;
nodes = (
"256 64 LINE",
"320 64 LINE",
"320 0 LINE",
"256 0 LINE",
"192 0 LINE",
"128 0 LINE",
"64 0 LINE",
"0 0 LINE",
"0 64 LINE",
"0 128 LINE",
"0 192 LINE",
"0 256 LINE",
"0 320 LINE",
"0 384 LINE",
"0 448 LINE",
"0 512 LINE",
"0 576 LINE",
"0 640 LINE",
"0 704 LINE",
"64 704 LINE",
"128 704 LINE",
"192 704 LINE",
"256 704 LINE",
"320 704 LINE",
"320 640 LINE",
"256 640 LINE",
"192 640 LINE",
"128 640 LINE",
"64 640 LINE",
"64 576 LINE",
"64 512 LINE",
"64 448 LINE",
"64 384 LINE",
"128 384 LINE",
"192 384 LINE",
"256 384 LINE",
"256 320 LINE",
"192 320 LINE",
"128 320 LINE",
"64 320 LINE",
"64 256 LINE",
"64 192 LINE",
"64 128 LINE",
"64 64 LINE",
"128 64 LINE",
"192 64 LINE"
);
}
);
width = 448;
}
);
unicode = 0045;
},
{
glyphname = F;
layers = (
{
layerId = "1F735D37-B4CA-40B6-B90B-0360E7E97D88";
name = Regular;
paths = (
{
closed = 1;
nodes = (
"0 0 LINE",
"0 64 LINE",
"0 128 LINE",
"0 192 LINE",
"0 256 LINE",
"0 320 LINE",
"0 384 LINE",
"0 448 LINE",
"0 512 LINE",
"0 576 LINE",
"0 640 LINE",
"0 704 LINE",
"64 704 LINE",
"128 704 LINE",
"192 704 LINE",
"256 704 LINE",
"320 704 LINE",
"320 640 LINE",
"256 640 LINE",
"192 640 LINE",
"128 640 LINE",
"64 640 LINE",
"64 576 LINE",
"64 512 LINE",
"64 448 LINE",
"64 384 LINE",
"128 384 LINE",
"192 384 LINE",
"256 384 LINE",
"256 320 LINE",
"192 320 LINE",
"128 320 LINE",
"64 320 LINE",
"64 256 LINE",
"64 192 LINE",
"64 128 LINE",
"64 64 LINE",
"64 0 LINE"
);
}
);
width = 448;
}
);
unicode = 0046;
},
{
glyphname = G;
layers = (
{
layerId = "1F735D37-B4CA-40B6-B90B-0360E7E97D88";
name = Regular;
paths = (
{
closed = 1;
nodes = (
"256 0 LINE",
"192 0 LINE",
"128 0 LINE",
"64 0 LINE",
"0 0 LINE",
"0 64 LINE",
"0 128 LINE",
"0 192 LINE",
"0 256 LINE",
"0 320 LINE",
"0 384 LINE",
"0 448 LINE",
"0 512 LINE",
"0 576 LINE",
"0 640 LINE",
"0 704 LINE",
"64 704 LINE",
"128 704 LINE",
"192 704 LINE",
"256 704 LINE",
"320 704 LINE",
"320 640 LINE",
"256 640 LINE",
"192 640 LINE",
"128 640 LINE",
"64 640 LINE",
"64 576 LINE",
"64 512 LINE",
"64 448 LINE",
"64 384 LINE",
"64 320 LINE",
"64 256 LINE",
"64 192 LINE",
"64 128 LINE",
"64 64 LINE",
"128 64 LINE",
"192 64 LINE",
"256 64 LINE",
"256 128 LINE",
"256 192 LINE",
"256 256 LINE",
"256 320 LINE",
"192 320 LINE",
"192 384 LINE",
"256 384 LINE",
"320 384 LINE",
"320 320 LINE",
"320 256 LINE",
"320 192 LINE",
"320 128 LINE",
"320 64 LINE",
"320 0 LINE"
);
}
);
width = 448;
}
);
unicode = 0047;
},
{
glyphname = H;
layers = (
{
layerId = "1F735D37-B4CA-40B6-B90B-0360E7E97D88";
name = Regular;
paths = (
{
closed = 1;
nodes = (
"256 0 LINE",
"256 64 LINE",
"256 128 LINE",
"256 192 LINE",
"256 256 LINE",
"256 320 LINE",
"192 320 LINE",
"128 320 LINE",
"64 320 LINE",
"64 256 LINE",
"64 192 LINE",
"64 128 LINE",
"64 64 LINE",
"64 0 LINE",
"0 0 LINE",
"0 64 LINE",
"0 128 LINE",
"0 192 LINE",
"0 256 LINE",
"0 320 LINE",
"0 384 LINE",
"0 448 LINE",
"0 512 LINE",
"0 576 LINE",
"0 640 LINE",
"0 704 LINE",
"64 704 LINE",
"64 640 LINE",
"64 576 LINE",
"64 512 LINE",
"64 448 LINE",
"64 384 LINE",
"128 384 LINE",
"192 384 LINE",
"256 384 LINE",
"256 448 LINE",
"256 512 LINE",
"256 576 LINE",
"256 640 LINE",
"256 704 LINE",
"320 704 LINE",
"320 640 LINE",
"320 576 LINE",
"320 512 LINE",
"320 448 LINE",
"320 384 LINE",
"320 320 LINE",
"320 256 LINE",
"320 192 LINE",
"320 128 LINE",
"320 64 LINE",
"320 0 LINE"
);
}
);
width = 448;
}
);
unicode = 0048;
},
{
glyphname = I;
layers = (
{
layerId = "1F735D37-B4CA-40B6-B90B-0360E7E97D88";
name = Regular;
paths = (
{
closed = 1;
nodes = (
"0 0 LINE",
"0 64 LINE",
"0 128 LINE",
"0 192 LINE",
"0 256 LINE",
"0 320 LINE",
"0 384 LINE",
"0 448 LINE",
"0 512 LINE",
"0 576 LINE",
"0 640 LINE",
"0 704 LINE",
"64 704 LINE",
"64 640 LINE",
"64 576 LINE",
"64 512 LINE",
"64 448 LINE",
"64 384 LINE",
"64 320 LINE",
"64 256 LINE",
"64 192 LINE",
"64 128 LINE",
"64 64 LINE",
"64 0 LINE"
);
}
);
width = 192;
}
);
unicode = 0049;
},
{
glyphname = J;
layers = (
{
layerId = "1F735D37-B4CA-40B6-B90B-0360E7E97D88";
name = Regular;
paths = (
{
closed = 1;
nodes = (
"256 0 LINE",
"192 0 LINE",
"128 0 LINE",
"64 0 LINE",
"0 0 LINE",
"0 64 LINE",
"64 64 LINE",
"128 64 LINE",
"192 64 LINE",
"256 64 LINE",
"256 128 LINE",
"256 192 LINE",
"256 256 LINE",
"256 320 LINE",
"256 384 LINE",
"256 448 LINE",
"256 512 LINE",
"256 576 LINE",
"256 640 LINE",
"192 640 LINE",
"128 640 LINE",
"128 704 LINE",
"192 704 LINE",
"256 704 LINE",
"320 704 LINE",
"320 640 LINE",
"320 576 LINE",
"320 512 LINE",
"320 448 LINE",
"320 384 LINE",
"320 320 LINE",
"320 256 LINE",
"320 192 LINE",
"320 128 LINE",
"320 64 LINE",
"320 0 LINE"
);
}
);
width = 448;
}
);
unicode = 004A;
},
{
glyphname = K;
layers = (
{
layerId = "1F735D37-B4CA-40B6-B90B-0360E7E97D88";
name = Regular;
paths = (
{
closed = 1;
nodes = (
"256 0 LINE",
"256 64 LINE",
"256 128 LINE",
"256 192 LINE",
"256 256 LINE",
"256 320 LINE",
"320 320 LINE",
"320 256 LINE",
"320 192 LINE",
"320 128 LINE",
"320 64 LINE",
"320 0 LINE"
);
},
{
closed = 1;
nodes = (
"0 0 LINE",
"0 64 LINE",
"0 128 LINE",
"0 192 LINE",
"0 256 LINE",
"0 320 LINE",
"0 384 LINE",
"0 448 LINE",
"0 512 LINE",
"0 576 LINE",
"0 640 LINE",
"0 704 LINE",
"64 704 LINE",
"64 640 LINE",
"64 576 LINE",
"64 512 LINE",
"64 448 LINE",
"64 384 LINE",
"128 384 LINE",
"192 384 LINE",
"256 384 LINE",
"256 320 LINE",
"192 320 LINE",
"128 320 LINE",
"64 320 LINE",
"64 256 LINE",
"64 192 LINE",
"64 128 LINE",
"64 64 LINE",
"64 0 LINE"
);
},
{
closed = 1;
nodes = (
"256 384 LINE",
"256 448 LINE",
"256 512 LINE",
"256 576 LINE",
"256 640 LINE",
"256 704 LINE",
"320 704 LINE",
"320 640 LINE",
"320 576 LINE",
"320 512 LINE",
"320 448 LINE",
"320 384 LINE"
);
}
);
width = 448;
}
);
unicode = 004B;
},
{
glyphname = L;
layers = (
{
layerId = "1F735D37-B4CA-40B6-B90B-0360E7E97D88";
name = Regular;
paths = (
{
closed = 1;
nodes = (
"256 64 LINE",
"320 64 LINE",
"320 0 LINE",
"256 0 LINE",
"192 0 LINE",
"128 0 LINE",
"64 0 LINE",
"0 0 LINE",
"0 64 LINE",
"0 128 LINE",
"0 192 LINE",
"0 256 LINE",
"0 320 LINE",
"0 384 LINE",
"0 448 LINE",
"0 512 LINE",
"0 576 LINE",
"0 640 LINE",
"0 704 LINE",
"64 704 LINE",
"64 640 LINE",
"64 576 LINE",
"64 512 LINE",
"64 448 LINE",
"64 384 LINE",
"64 320 LINE",
"64 256 LINE",
"64 192 LINE",
"64 128 LINE",
"64 64 LINE",
"128 64 LINE",
"192 64 LINE"
);
}
);
width = 448;
}
);
unicode = 004C;
},
{
glyphname = M;
layers = (
{
layerId = "1F735D37-B4CA-40B6-B90B-0360E7E97D88";
name = Regular;
paths = (
{
closed = 1;
nodes = (
"384 0 LINE",
"384 64 LINE",
"384 128 LINE",
"384 192 LINE",
"384 256 LINE",
"384 320 LINE",
"384 384 LINE",
"384 448 LINE",
"384 512 LINE",
"384 576 LINE",
"384 640 LINE",
"320 640 LINE",
"256 640 LINE",
"256 576 LINE",
"256 512 LINE",
"256 448 LINE",
"256 384 LINE",
"192 384 LINE",
"192 448 LINE",
"192 512 LINE",
"192 576 LINE",
"192 640 LINE",
"128 640 LINE",
"64 640 LINE",
"64 576 LINE",
"64 512 LINE",
"64 448 LINE",
"64 384 LINE",
"64 320 LINE",
"64 256 LINE",
"64 192 LINE",
"64 128 LINE",
"64 64 LINE",
"64 0 LINE",
"0 0 LINE",
"0 64 LINE",
"0 128 LINE",
"0 192 LINE",
"0 256 LINE",
"0 320 LINE",
"0 384 LINE",
"0 448 LINE",
"0 512 LINE",
"0 576 LINE",
"0 640 LINE",
"0 704 LINE",
"64 704 LINE",
"128 704 LINE",
"192 704 LINE",
"256 704 LINE",
"320 704 LINE",
"384 704 LINE",
"448 704 LINE",
"448 640 LINE",
"448 576 LINE",
"448 512 LINE",
"448 448 LINE",
"448 384 LINE",
"448 320 LINE",
"448 256 LINE",
"448 192 LINE",
"448 128 LINE",
"448 64 LINE",
"448 0 LINE"
);
}
);
width = 576;
}
);
unicode = 004D;
},
{
glyphname = N;
layers = (
{
layerId = "1F735D37-B4CA-40B6-B90B-0360E7E97D88";
name = Regular;
paths = (
{
closed = 1;
nodes = (
"256 0 LINE",
"256 64 LINE",
"256 128 LINE",
"256 192 LINE",
"256 256 LINE",
"256 320 LINE",
"256 384 LINE",
"256 448 LINE",
"256 512 LINE",
"256 576 LINE",
"256 640 LINE",
"192 640 LINE",
"128 640 LINE",
"64 640 LINE",
"64 576 LINE",
"64 512 LINE",
"64 448 LINE",
"64 384 LINE",
"64 320 LINE",
"64 256 LINE",
"64 192 LINE",
"64 128 LINE",
"64 64 LINE",
"64 0 LINE",
"0 0 LINE",
"0 64 LINE",
"0 128 LINE",
"0 192 LINE",
"0 256 LINE",
"0 320 LINE",
"0 384 LINE",
"0 448 LINE",
"0 512 LINE",
"0 576 LINE",
"0 640 LINE",
"0 704 LINE",
"64 704 LINE",
"128 704 LINE",
"192 704 LINE",
"256 704 LINE",
"320 704 LINE",
"320 640 LINE",
"320 576 LINE",
"320 512 LINE",
"320 448 LINE",
"320 384 LINE",
"320 320 LINE",
"320 256 LINE",
"320 192 LINE",
"320 128 LINE",
"320 64 LINE",
"320 0 LINE"
);
}
);
width = 448;
}
);
unicode = 004E;
},
{
glyphname = O;
layers = (
{
layerId = "1F735D37-B4CA-40B6-B90B-0360E7E97D88";
name = Regular;
paths = (
{
closed = 1;
nodes = (
"256 0 LINE",
"192 0 LINE",
"128 0 LINE",
"64 0 LINE",
"0 0 LINE",
"0 64 LINE",
"0 128 LINE",
"0 192 LINE",
"0 256 LINE",
"0 320 LINE",
"0 384 LINE",
"0 448 LINE",
"0 512 LINE",
"0 576 LINE",
"0 640 LINE",
"0 704 LINE",
"64 704 LINE",
"128 704 LINE",
"192 704 LINE",
"256 704 LINE",
"320 704 LINE",
"320 640 LINE",
"320 576 LINE",
"320 512 LINE",
"320 448 LINE",
"320 384 LINE",
"320 320 LINE",
"320 256 LINE",
"320 192 LINE",
"320 128 LINE",
"320 64 LINE",
"320 0 LINE"
);
},
{
closed = 1;
nodes = (
"192 64 LINE",
"256 64 LINE",
"256 128 LINE",
"256 192 LINE",
"256 256 LINE",
"256 320 LINE",
"256 384 LINE",
"256 448 LINE",
"256 512 LINE",
"256 576 LINE",
"256 640 LINE",
"192 640 LINE",
"128 640 LINE",
"64 640 LINE",
"64 576 LINE",
"64 512 LINE",
"64 448 LINE",
"64 384 LINE",
"64 320 LINE",
"64 256 LINE",
"64 192 LINE",
"64 128 LINE",
"64 64 LINE",
"128 64 LINE"
);
}
);
width = 448;
}
);
unicode = 004F;
},
{
glyphname = P;
layers = (
{
layerId = "1F735D37-B4CA-40B6-B90B-0360E7E97D88";
name = Regular;
paths = (
{
closed = 1;
nodes = (
"0 0 LINE",
"0 64 LINE",
"0 128 LINE",
"0 192 LINE",
"0 256 LINE",
"0 320 LINE",
"0 384 LINE",
"0 448 LINE",
"0 512 LINE",
"0 576 LINE",
"0 640 LINE",
"0 704 LINE",
"64 704 LINE",
"128 704 LINE",
"192 704 LINE",
"256 704 LINE",
"320 704 LINE",
"320 640 LINE",
"320 576 LINE",
"320 512 LINE",
"320 448 LINE",
"320 384 LINE",
"320 320 LINE",
"256 320 LINE",
"192 320 LINE",
"128 320 LINE",
"64 320 LINE",
"64 256 LINE",
"64 192 LINE",
"64 128 LINE",
"64 64 LINE",
"64 0 LINE"
);
},
{
closed = 1;
nodes = (
"192 384 LINE",
"256 384 LINE",
"256 448 LINE",
"256 512 LINE",
"256 576 LINE",
"256 640 LINE",
"192 640 LINE",
"128 640 LINE",
"64 640 LINE",
"64 576 LINE",
"64 512 LINE",
"64 448 LINE",
"64 384 LINE",
"128 384 LINE"
);
}
);
width = 448;
}
);
unicode = 0050;
},
{
glyphname = Q;
layers = (
{
layerId = "1F735D37-B4CA-40B6-B90B-0360E7E97D88";
name = Regular;
paths = (
{
closed = 1;
nodes = (
"192 -128 LINE",
"192 -64 LINE",
"128 -64 LINE",
"128 0 LINE",
"64 0 LINE",
"0 0 LINE",
"0 64 LINE",
"0 128 LINE",
"0 192 LINE",
"0 256 LINE",
"0 320 LINE",
"0 384 LINE",
"0 448 LINE",
"0 512 LINE",
"0 576 LINE",
"0 640 LINE",
"0 704 LINE",
"64 704 LINE",
"128 704 LINE",
"192 704 LINE",
"256 704 LINE",
"320 704 LINE",
"320 640 LINE",
"320 576 LINE",
"320 512 LINE",
"320 448 LINE",
"320 384 LINE",
"320 320 LINE",
"320 256 LINE",
"320 192 LINE",
"320 128 LINE",
"320 64 LINE",
"320 0 LINE",
"256 0 LINE",
"256 -64 LINE",
"256 -128 LINE"
);
},
{
closed = 1;
nodes = (
"256 64 LINE",
"256 128 LINE",
"256 192 LINE",
"256 256 LINE",
"256 320 LINE",
"256 384 LINE",
"256 448 LINE",
"256 512 LINE",
"256 576 LINE",
"256 640 LINE",
"192 640 LINE",
"128 640 LINE",
"64 640 LINE",
"64 576 LINE",
"64 512 LINE",
"64 448 LINE",
"64 384 LINE",
"64 320 LINE",
"64 256 LINE",
"64 192 LINE",
"64 128 LINE",
"64 64 LINE",
"128 64 LINE",
"128 128 LINE",
"192 128 LINE",
"192 64 LINE"
);
}
);
width = 448;
}
);
unicode = 0051;
},
{
glyphname = R;
layers = (
{
layerId = "1F735D37-B4CA-40B6-B90B-0360E7E97D88";
name = Regular;
paths = (
{
closed = 1;
nodes = (
"256 0 LINE",
"256 64 LINE",
"256 128 LINE",
"256 192 LINE",
"256 256 LINE",
"256 320 LINE",
"320 320 LINE",
"320 256 LINE",
"320 192 LINE",
"320 128 LINE",
"320 64 LINE",
"320 0 LINE"
);
},
{
closed = 1;
nodes = (
"0 0 LINE",
"0 64 LINE",
"0 128 LINE",
"0 192 LINE",
"0 256 LINE",
"0 320 LINE",
"0 384 LINE",
"0 448 LINE",
"0 512 LINE",
"0 576 LINE",
"0 640 LINE",
"0 704 LINE",
"64 704 LINE",
"128 704 LINE",
"192 704 LINE",
"256 704 LINE",
"320 704 LINE",
"320 640 LINE",
"320 576 LINE",
"320 512 LINE",
"320 448 LINE",
"320 384 LINE",
"256 384 LINE",
"256 448 LINE",
"256 512 LINE",
"256 576 LINE",
"256 640 LINE",
"192 640 LINE",
"128 640 LINE",
"64 640 LINE",
"64 576 LINE",
"64 512 LINE",
"64 448 LINE",
"64 384 LINE",
"128 384 LINE",
"192 384 LINE",
"256 384 LINE",
"256 320 LINE",
"192 320 LINE",
"128 320 LINE",
"64 320 LINE",
"64 256 LINE",
"64 192 LINE",
"64 128 LINE",
"64 64 LINE",
"64 0 LINE"
);
}
);
width = 448;
}
);
unicode = 0052;
},
{
glyphname = S;
layers = (
{
layerId = "1F735D37-B4CA-40B6-B90B-0360E7E97D88";
name = Regular;
paths = (
{
closed = 1;
nodes = (
"256 0 LINE",
"192 0 LINE",
"128 0 LINE",
"64 0 LINE",
"0 0 LINE",
"0 64 LINE",
"64 64 LINE",
"128 64 LINE",
"192 64 LINE",
"256 64 LINE",
"256 128 LINE",
"256 192 LINE",
"256 256 LINE",
"256 320 LINE",
"192 320 LINE",
"128 320 LINE",
"64 320 LINE",
"0 320 LINE",
"0 384 LINE",
"0 448 LINE",
"0 512 LINE",
"0 576 LINE",
"0 640 LINE",
"0 704 LINE",
"64 704 LINE",
"128 704 LINE",
"192 704 LINE",
"256 704 LINE",
"320 704 LINE",
"320 640 LINE",
"256 640 LINE",
"192 640 LINE",
"128 640 LINE",
"64 640 LINE",
"64 576 LINE",
"64 512 LINE",
"64 448 LINE",
"64 384 LINE",
"128 384 LINE",
"192 384 LINE",
"256 384 LINE",
"320 384 LINE",
"320 320 LINE",
"320 256 LINE",
"320 192 LINE",
"320 128 LINE",
"320 64 LINE",
"320 0 LINE"
);
}
);
width = 448;
}
);
unicode = 0053;
},
{
glyphname = T;
layers = (
{
layerId = "1F735D37-B4CA-40B6-B90B-0360E7E97D88";
name = Regular;
paths = (
{
closed = 1;
nodes = (
"128 0 LINE",
"128 64 LINE",
"128 128 LINE",
"128 192 LINE",
"128 256 LINE",
"128 320 LINE",
"128 384 LINE",
"128 448 LINE",
"128 512 LINE",
"128 576 LINE",
"128 640 LINE",
"64 640 LINE",
"0 640 LINE",
"0 704 LINE",
"64 704 LINE",
"128 704 LINE",
"192 704 LINE",
"256 704 LINE",
"320 704 LINE",
"320 640 LINE",
"256 640 LINE",
"192 640 LINE",
"192 576 LINE",
"192 512 LINE",
"192 448 LINE",
"192 384 LINE",
"192 320 LINE",
"192 256 LINE",
"192 192 LINE",
"192 128 LINE",
"192 64 LINE",
"192 0 LINE"
);
}
);
width = 448;
}
);
unicode = 0054;
},
{
glyphname = U;
layers = (
{
layerId = "1F735D37-B4CA-40B6-B90B-0360E7E97D88";
name = Regular;
paths = (
{
closed = 1;
nodes = (
"256 0 LINE",
"192 0 LINE",
"128 0 LINE",
"64 0 LINE",
"0 0 LINE",
"0 64 LINE",
"0 128 LINE",
"0 192 LINE",
"0 256 LINE",
"0 320 LINE",
"0 384 LINE",
"0 448 LINE",
"0 512 LINE",
"0 576 LINE",
"0 640 LINE",
"0 704 LINE",
"64 704 LINE",
"64 640 LINE",
"64 576 LINE",
"64 512 LINE",
"64 448 LINE",
"64 384 LINE",
"64 320 LINE",
"64 256 LINE",
"64 192 LINE",
"64 128 LINE",
"64 64 LINE",
"128 64 LINE",
"192 64 LINE",
"256 64 LINE",
"256 128 LINE",
"256 192 LINE",
"256 256 LINE",
"256 320 LINE",
"256 384 LINE",
"256 448 LINE",
"256 512 LINE",
"256 576 LINE",
"256 640 LINE",
"256 704 LINE",
"320 704 LINE",
"320 640 LINE",
"320 576 LINE",
"320 512 LINE",
"320 448 LINE",
"320 384 LINE",
"320 320 LINE",
"320 256 LINE",
"320 192 LINE",
"320 128 LINE",
"320 64 LINE",
"320 0 LINE"
);
}
);
width = 448;
}
);
unicode = 0055;
},
{
glyphname = V;
layers = (
{
layerId = "1F735D37-B4CA-40B6-B90B-0360E7E97D88";
name = Regular;
paths = (
{
closed = 1;
nodes = (
"128 0 LINE",
"128 64 LINE",
"192 64 LINE",
"192 0 LINE"
);
},
{
closed = 1;
nodes = (
"192 64 LINE",
"192 128 LINE",
"256 128 LINE",
"256 64 LINE"
);
},
{
closed = 1;
nodes = (
"128 64 LINE",
"64 64 LINE",
"64 128 LINE",
"128 128 LINE"
);
},
{
closed = 1;
nodes = (
"256 128 LINE",
"256 192 LINE",
"256 256 LINE",
"256 320 LINE",
"256 384 LINE",
"256 448 LINE",
"256 512 LINE",
"256 576 LINE",
"256 640 LINE",
"256 704 LINE",
"320 704 LINE",
"320 640 LINE",
"320 576 LINE",
"320 512 LINE",
"320 448 LINE",
"320 384 LINE",
"320 320 LINE",
"320 256 LINE",
"320 192 LINE",
"320 128 LINE"
);
},
{
closed = 1;
nodes = (
"64 128 LINE",
"0 128 LINE",
"0 192 LINE",
"0 256 LINE",
"0 320 LINE",
"0 384 LINE",
"0 448 LINE",
"0 512 LINE",
"0 576 LINE",
"0 640 LINE",
"0 704 LINE",
"64 704 LINE",
"64 640 LINE",
"64 576 LINE",
"64 512 LINE",
"64 448 LINE",
"64 384 LINE",
"64 320 LINE",
"64 256 LINE",
"64 192 LINE"
);
}
);
width = 448;
}
);
unicode = 0056;
},
{
glyphname = W;
layers = (
{
layerId = "1F735D37-B4CA-40B6-B90B-0360E7E97D88";
name = Regular;
paths = (
{
closed = 1;
nodes = (
"384 0 LINE",
"320 0 LINE",
"256 0 LINE",
"192 0 LINE",
"128 0 LINE",
"64 0 LINE",
"0 0 LINE",
"0 64 LINE",
"0 128 LINE",
"0 192 LINE",
"0 256 LINE",
"0 320 LINE",
"0 384 LINE",
"0 448 LINE",
"0 512 LINE",
"0 576 LINE",
"0 640 LINE",
"0 704 LINE",
"64 704 LINE",
"64 640 LINE",
"64 576 LINE",
"64 512 LINE",
"64 448 LINE",
"64 384 LINE",
"64 320 LINE",
"64 256 LINE",
"64 192 LINE",
"64 128 LINE",
"64 64 LINE",
"128 64 LINE",
"192 64 LINE",
"192 128 LINE",
"192 192 LINE",
"192 256 LINE",
"192 320 LINE",
"256 320 LINE",
"256 256 LINE",
"256 192 LINE",
"256 128 LINE",
"256 64 LINE",
"320 64 LINE",
"384 64 LINE",
"384 128 LINE",
"384 192 LINE",
"384 256 LINE",
"384 320 LINE",
"384 384 LINE",
"384 448 LINE",
"384 512 LINE",
"384 576 LINE",
"384 640 LINE",
"384 704 LINE",
"448 704 LINE",
"448 640 LINE",
"448 576 LINE",
"448 512 LINE",
"448 448 LINE",
"448 384 LINE",
"448 320 LINE",
"448 256 LINE",
"448 192 LINE",
"448 128 LINE",
"448 64 LINE",
"448 0 LINE"
);
}
);
width = 576;
}
);
unicode = 0057;
},
{
glyphname = X;
layers = (
{
layerId = "1F735D37-B4CA-40B6-B90B-0360E7E97D88";
name = Regular;
paths = (
{
closed = 1;
nodes = (
"256 0 LINE",
"256 64 LINE",
"256 128 LINE",
"256 192 LINE",
"256 256 LINE",
"320 256 LINE",
"320 192 LINE",
"320 128 LINE",
"320 64 LINE",
"320 0 LINE"
);
},
{
closed = 1;
nodes = (
"0 0 LINE",
"0 64 LINE",
"0 128 LINE",
"0 192 LINE",
"0 256 LINE",
"64 256 LINE",
"64 192 LINE",
"64 128 LINE",
"64 64 LINE",
"64 0 LINE"
);
},
{
closed = 1;
nodes = (
"256 256 LINE",
"192 256 LINE",
"192 320 LINE",
"256 320 LINE"
);
},
{
closed = 1;
nodes = (
"64 256 LINE",
"64 320 LINE",
"128 320 LINE",
"128 256 LINE"
);
},
{
closed = 1;
nodes = (
"192 320 LINE",
"128 320 LINE",
"128 384 LINE",
"192 384 LINE"
);
},
{
closed = 1;
nodes = (
"192 384 LINE",
"192 448 LINE",
"256 448 LINE",
"256 384 LINE"
);
},
{
closed = 1;
nodes = (
"128 384 LINE",
"64 384 LINE",
"64 448 LINE",
"128 448 LINE"
);
},
{
closed = 1;
nodes = (
"256 448 LINE",
"256 512 LINE",
"256 576 LINE",
"256 640 LINE",
"256 704 LINE",
"320 704 LINE",
"320 640 LINE",
"320 576 LINE",
"320 512 LINE",
"320 448 LINE"
);
},
{
closed = 1;
nodes = (
"64 448 LINE",
"0 448 LINE",
"0 512 LINE",
"0 576 LINE",
"0 640 LINE",
"0 704 LINE",
"64 704 LINE",
"64 640 LINE",
"64 576 LINE",
"64 512 LINE"
);
}
);
width = 448;
}
);
unicode = 0058;
},
{
glyphname = Y;
layers = (
{
layerId = "1F735D37-B4CA-40B6-B90B-0360E7E97D88";
name = Regular;
paths = (
{
closed = 1;
nodes = (
"128 0 LINE",
"128 64 LINE",
"128 128 LINE",
"128 192 LINE",
"128 256 LINE",
"128 320 LINE",
"64 320 LINE",
"64 384 LINE",
"128 384 LINE",
"192 384 LINE",
"256 384 LINE",
"256 320 LINE",
"192 320 LINE",
"192 256 LINE",
"192 192 LINE",
"192 128 LINE",
"192 64 LINE",
"192 0 LINE"
);
},
{
closed = 1;
nodes = (
"256 384 LINE",
"256 448 LINE",
"256 512 LINE",
"256 576 LINE",
"256 640 LINE",
"256 704 LINE",
"320 704 LINE",
"320 640 LINE",
"320 576 LINE",
"320 512 LINE",
"320 448 LINE",
"320 384 LINE"
);
},
{
closed = 1;
nodes = (
"64 384 LINE",
"0 384 LINE",
"0 448 LINE",
"0 512 LINE",
"0 576 LINE",
"0 640 LINE",
"0 704 LINE",
"64 704 LINE",
"64 640 LINE",
"64 576 LINE",
"64 512 LINE",
"64 448 LINE"
);
}
);
width = 448;
}
);
unicode = 0059;
},
{
glyphname = Z;
layers = (
{
layerId = "1F735D37-B4CA-40B6-B90B-0360E7E97D88";
name = Regular;
paths = (
{
closed = 1;
nodes = (
"256 64 LINE",
"320 64 LINE",
"320 0 LINE",
"256 0 LINE",
"192 0 LINE",
"128 0 LINE",
"64 0 LINE",
"0 0 LINE",
"0 64 LINE",
"0 128 LINE",
"0 192 LINE",
"0 256 LINE",
"64 256 LINE",
"64 192 LINE",
"64 128 LINE",
"64 64 LINE",
"128 64 LINE",
"192 64 LINE"
);
},
{
closed = 1;
nodes = (
"64 256 LINE",
"64 320 LINE",
"128 320 LINE",
"128 256 LINE"
);
},
{
closed = 1;
nodes = (
"128 320 LINE",
"128 384 LINE",
"192 384 LINE",
"192 320 LINE"
);
},
{
closed = 1;
nodes = (
"192 384 LINE",
"192 448 LINE",
"256 448 LINE",
"256 384 LINE"
);
},
{
closed = 1;
nodes = (
"256 448 LINE",
"256 512 LINE",
"256 576 LINE",
"256 640 LINE",
"192 640 LINE",
"128 640 LINE",
"64 640 LINE",
"0 640 LINE",
"0 704 LINE",
"64 704 LINE",
"128 704 LINE",
"192 704 LINE",
"256 704 LINE",
"320 704 LINE",
"320 640 LINE",
"320 576 LINE",
"320 512 LINE",
"320 448 LINE"
);
}
);
width = 448;
}
);
unicode = 005A;
},
{
glyphname = bracketleft;
layers = (
{
layerId = "1F735D37-B4CA-40B6-B90B-0360E7E97D88";
name = Regular;
paths = (
{
closed = 1;
nodes = (
"64 0 LINE",
"0 0 LINE",
"0 64 LINE",
"0 128 LINE",
"0 192 LINE",
"0 256 LINE",
"0 320 LINE",
"0 384 LINE",
"0 448 LINE",
"0 512 LINE",
"0 576 LINE",
"0 640 LINE",
"0 704 LINE",
"64 704 LINE",
"128 704 LINE",
"128 640 LINE",
"64 640 LINE",
"64 576 LINE",
"64 512 LINE",
"64 448 LINE",
"64 384 LINE",
"64 320 LINE",
"64 256 LINE",
"64 192 LINE",
"64 128 LINE",
"64 64 LINE",
"128 64 LINE",
"128 0 LINE"
);
}
);
width = 256;
}
);
unicode = 005B;
},
{
glyphname = backslash;
layers = (
{
layerId = "1F735D37-B4CA-40B6-B90B-0360E7E97D88";
name = Regular;
paths = (
{
closed = 1;
nodes = (
"256 64 LINE",
"256 128 LINE",
"256 192 LINE",
"320 192 LINE",
"320 128 LINE",
"320 64 LINE"
);
},
{
closed = 1;
nodes = (
"256 192 LINE",
"192 192 LINE",
"192 256 LINE",
"192 320 LINE",
"256 320 LINE",
"256 256 LINE"
);
},
{
closed = 1;
nodes = (
"192 320 LINE",
"128 320 LINE",
"128 384 LINE",
"128 448 LINE",
"192 448 LINE",
"192 384 LINE"
);
},
{
closed = 1;
nodes = (
"128 448 LINE",
"64 448 LINE",
"64 512 LINE",
"64 576 LINE",
"128 576 LINE",
"128 512 LINE"
);
},
{
closed = 1;
nodes = (
"64 576 LINE",
"0 576 LINE",
"0 640 LINE",
"0 704 LINE",
"64 704 LINE",
"64 640 LINE"
);
}
);
width = 448;
}
);
unicode = 005C;
},
{
glyphname = bracketright;
layers = (
{
layerId = "1F735D37-B4CA-40B6-B90B-0360E7E97D88";
name = Regular;
paths = (
{
closed = 1;
nodes = (
"64 0 LINE",
"0 0 LINE",
"0 64 LINE",
"64 64 LINE",
"64 128 LINE",
"64 192 LINE",
"64 256 LINE",
"64 320 LINE",
"64 384 LINE",
"64 448 LINE",
"64 512 LINE",
"64 576 LINE",
"64 640 LINE",
"0 640 LINE",
"0 704 LINE",
"64 704 LINE",
"128 704 LINE",
"128 640 LINE",
"128 576 LINE",
"128 512 LINE",
"128 448 LINE",
"128 384 LINE",
"128 320 LINE",
"128 256 LINE",
"128 192 LINE",
"128 128 LINE",
"128 64 LINE",
"128 0 LINE"
);
}
);
width = 256;
}
);
unicode = 005D;
},
{
glyphname = asciicircum;
layers = (
{
layerId = "1F735D37-B4CA-40B6-B90B-0360E7E97D88";
name = Regular;
paths = (
{
closed = 1;
nodes = (
"128 512 LINE",
"128 576 LINE",
"192 576 LINE",
"192 512 LINE"
);
},
{
closed = 1;
nodes = (
"0 512 LINE",
"0 576 LINE",
"64 576 LINE",
"64 512 LINE"
);
},
{
closed = 1;
nodes = (
"128 576 LINE",
"64 576 LINE",
"64 640 LINE",
"128 640 LINE"
);
}
);
width = 320;
}
);
unicode = 005E;
},
{
glyphname = underscore;
layers = (
{
layerId = "1F735D37-B4CA-40B6-B90B-0360E7E97D88";
name = Regular;
paths = (
{
closed = 1;
nodes = (
"256 -64 LINE",
"320 -64 LINE",
"320 -128 LINE",
"256 -128 LINE",
"192 -128 LINE",
"128 -128 LINE",
"64 -128 LINE",
"0 -128 LINE",
"0 -64 LINE",
"64 -64 LINE",
"128 -64 LINE",
"192 -64 LINE"
);
}
);
width = 448;
}
);
unicode = 005F;
},
{
glyphname = grave;
layers = (
{
layerId = "1F735D37-B4CA-40B6-B90B-0360E7E97D88";
name = Regular;
paths = (
{
closed = 1;
nodes = (
"64 576 LINE",
"64 640 LINE",
"128 640 LINE",
"128 576 LINE"
);
},
{
closed = 1;
nodes = (
"64 640 LINE",
"0 640 LINE",
"0 704 LINE",
"64 704 LINE"
);
}
);
width = 256;
}
);
unicode = 0060;
},
{
glyphname = a;
layers = (
{
layerId = "1F735D37-B4CA-40B6-B90B-0360E7E97D88";
name = Regular;
paths = (
{
closed = 1;
nodes = (
"256 0 LINE",
"192 0 LINE",
"128 0 LINE",
"64 0 LINE",
"0 0 LINE",
"0 64 LINE",
"0 128 LINE",
"0 192 LINE",
"0 256 LINE",
"0 320 LINE",
"64 320 LINE",
"128 320 LINE",
"192 320 LINE",
"256 320 LINE",
"256 384 LINE",
"256 448 LINE",
"192 448 LINE",
"128 448 LINE",
"64 448 LINE",
"0 448 LINE",
"0 512 LINE",
"64 512 LINE",
"128 512 LINE",
"192 512 LINE",
"256 512 LINE",
"320 512 LINE",
"320 448 LINE",
"320 384 LINE",
"320 320 LINE",
"320 256 LINE",
"320 192 LINE",
"320 128 LINE",
"320 64 LINE",
"320 0 LINE"
);
},
{
closed = 1;
nodes = (
"192 64 LINE",
"256 64 LINE",
"256 128 LINE",
"256 192 LINE",
"256 256 LINE",
"192 256 LINE",
"128 256 LINE",
"64 256 LINE",
"64 192 LINE",
"64 128 LINE",
"64 64 LINE",
"128 64 LINE"
);
}
);
width = 448;
}
);
unicode = 0061;
},
{
glyphname = b;
layers = (
{
layerId = "1F735D37-B4CA-40B6-B90B-0360E7E97D88";
name = Regular;
paths = (
{
closed = 1;
nodes = (
"256 0 LINE",
"192 0 LINE",
"128 0 LINE",
"64 0 LINE",
"0 0 LINE",
"0 64 LINE",
"0 128 LINE",
"0 192 LINE",
"0 256 LINE",
"0 320 LINE",
"0 384 LINE",
"0 448 LINE",
"0 512 LINE",
"0 576 LINE",
"0 640 LINE",
"0 704 LINE",
"64 704 LINE",
"64 640 LINE",
"64 576 LINE",
"64 512 LINE",
"128 512 LINE",
"192 512 LINE",
"256 512 LINE",
"320 512 LINE",
"320 448 LINE",
"320 384 LINE",
"320 320 LINE",
"320 256 LINE",
"320 192 LINE",
"320 128 LINE",
"320 64 LINE",
"320 0 LINE"
);
},
{
closed = 1;
nodes = (
"192 64 LINE",
"256 64 LINE",
"256 128 LINE",
"256 192 LINE",
"256 256 LINE",
"256 320 LINE",
"256 384 LINE",
"256 448 LINE",
"192 448 LINE",
"128 448 LINE",
"64 448 LINE",
"64 384 LINE",
"64 320 LINE",
"64 256 LINE",
"64 192 LINE",
"64 128 LINE",
"64 64 LINE",
"128 64 LINE"
);
}
);
width = 448;
}
);
unicode = 0062;
},
{
glyphname = c;
layers = (
{
layerId = "1F735D37-B4CA-40B6-B90B-0360E7E97D88";
name = Regular;
paths = (
{
closed = 1;
nodes = (
"256 64 LINE",
"320 64 LINE",
"320 0 LINE",
"256 0 LINE",
"192 0 LINE",
"128 0 LINE",
"64 0 LINE",
"0 0 LINE",
"0 64 LINE",
"0 128 LINE",
"0 192 LINE",
"0 256 LINE",
"0 320 LINE",
"0 384 LINE",
"0 448 LINE",
"0 512 LINE",
"64 512 LINE",
"128 512 LINE",
"192 512 LINE",
"256 512 LINE",
"320 512 LINE",
"320 448 LINE",
"256 448 LINE",
"192 448 LINE",
"128 448 LINE",
"64 448 LINE",
"64 384 LINE",
"64 320 LINE",
"64 256 LINE",
"64 192 LINE",
"64 128 LINE",
"64 64 LINE",
"128 64 LINE",
"192 64 LINE"
);
}
);
width = 448;
}
);
unicode = 0063;
},
{
glyphname = d;
layers = (
{
layerId = "1F735D37-B4CA-40B6-B90B-0360E7E97D88";
name = Regular;
paths = (
{
closed = 1;
nodes = (
"256 0 LINE",
"192 0 LINE",
"128 0 LINE",
"64 0 LINE",
"0 0 LINE",
"0 64 LINE",
"0 128 LINE",
"0 192 LINE",
"0 256 LINE",
"0 320 LINE",
"0 384 LINE",
"0 448 LINE",
"0 512 LINE",
"64 512 LINE",
"128 512 LINE",
"192 512 LINE",
"256 512 LINE",
"256 576 LINE",
"256 640 LINE",
"256 704 LINE",
"320 704 LINE",
"320 640 LINE",
"320 576 LINE",
"320 512 LINE",
"320 448 LINE",
"320 384 LINE",
"320 320 LINE",
"320 256 LINE",
"320 192 LINE",
"320 128 LINE",
"320 64 LINE",
"320 0 LINE"
);
},
{
closed = 1;
nodes = (
"192 64 LINE",
"256 64 LINE",
"256 128 LINE",
"256 192 LINE",
"256 256 LINE",
"256 320 LINE",
"256 384 LINE",
"256 448 LINE",
"192 448 LINE",
"128 448 LINE",
"64 448 LINE",
"64 384 LINE",
"64 320 LINE",
"64 256 LINE",
"64 192 LINE",
"64 128 LINE",
"64 64 LINE",
"128 64 LINE"
);
}
);
width = 448;
}
);
unicode = 0064;
},
{
glyphname = e;
layers = (
{
layerId = "1F735D37-B4CA-40B6-B90B-0360E7E97D88";
name = Regular;
paths = (
{
closed = 1;
nodes = (
"256 64 LINE",
"320 64 LINE",
"320 0 LINE",
"256 0 LINE",
"192 0 LINE",
"128 0 LINE",
"64 0 LINE",
"0 0 LINE",
"0 64 LINE",
"0 128 LINE",
"0 192 LINE",
"0 256 LINE",
"0 320 LINE",
"0 384 LINE",
"0 448 LINE",
"0 512 LINE",
"64 512 LINE",
"128 512 LINE",
"192 512 LINE",
"256 512 LINE",
"320 512 LINE",
"320 448 LINE",
"320 384 LINE",
"320 320 LINE",
"320 256 LINE",
"320 192 LINE",
"256 192 LINE",
"192 192 LINE",
"128 192 LINE",
"64 192 LINE",
"64 128 LINE",
"64 64 LINE",
"128 64 LINE",
"192 64 LINE"
);
},
{
closed = 1;
nodes = (
"192 256 LINE",
"256 256 LINE",
"256 320 LINE",
"256 384 LINE",
"256 448 LINE",
"192 448 LINE",
"128 448 LINE",
"64 448 LINE",
"64 384 LINE",
"64 320 LINE",
"64 256 LINE",
"128 256 LINE"
);
}
);
width = 448;
}
);
unicode = 0065;
},
{
glyphname = f;
layers = (
{
layerId = "1F735D37-B4CA-40B6-B90B-0360E7E97D88";
name = Regular;
paths = (
{
closed = 1;
nodes = (
"128 0 LINE",
"128 64 LINE",
"128 128 LINE",
"128 192 LINE",
"128 256 LINE",
"128 320 LINE",
"128 384 LINE",
"128 448 LINE",
"64 448 LINE",
"0 448 LINE",
"0 512 LINE",
"64 512 LINE",
"128 512 LINE",
"128 576 LINE",
"128 640 LINE",
"128 704 LINE",
"192 704 LINE",
"256 704 LINE",
"320 704 LINE",
"320 640 LINE",
"256 640 LINE",
"192 640 LINE",
"192 576 LINE",
"192 512 LINE",
"256 512 LINE",
"320 512 LINE",
"320 448 LINE",
"256 448 LINE",
"192 448 LINE",
"192 384 LINE",
"192 320 LINE",
"192 256 LINE",
"192 192 LINE",
"192 128 LINE",
"192 64 LINE",
"192 0 LINE"
);
}
);
width = 448;
}
);
unicode = 0066;
},
{
glyphname = g;
layers = (
{
layerId = "1F735D37-B4CA-40B6-B90B-0360E7E97D88";
name = Regular;
paths = (
{
closed = 1;
nodes = (
"256 -128 LINE",
"192 -128 LINE",
"128 -128 LINE",
"64 -128 LINE",
"0 -128 LINE",
"0 -64 LINE",
"64 -64 LINE",
"128 -64 LINE",
"192 -64 LINE",
"256 -64 LINE",
"256 0 LINE",
"192 0 LINE",
"128 0 LINE",
"64 0 LINE",
"0 0 LINE",
"0 64 LINE",
"0 128 LINE",
"0 192 LINE",
"0 256 LINE",
"0 320 LINE",
"0 384 LINE",
"0 448 LINE",
"0 512 LINE",
"64 512 LINE",
"128 512 LINE",
"192 512 LINE",
"256 512 LINE",
"320 512 LINE",
"320 448 LINE",
"320 384 LINE",
"320 320 LINE",
"320 256 LINE",
"320 192 LINE",
"320 128 LINE",
"320 64 LINE",
"320 0 LINE",
"320 -64 LINE",
"320 -128 LINE"
);
},
{
closed = 1;
nodes = (
"192 64 LINE",
"256 64 LINE",
"256 128 LINE",
"256 192 LINE",
"256 256 LINE",
"256 320 LINE",
"256 384 LINE",
"256 448 LINE",
"192 448 LINE",
"128 448 LINE",
"64 448 LINE",
"64 384 LINE",
"64 320 LINE",
"64 256 LINE",
"64 192 LINE",
"64 128 LINE",
"64 64 LINE",
"128 64 LINE"
);
}
);
width = 448;
}
);
unicode = 0067;
},
{
glyphname = h;
layers = (
{
layerId = "1F735D37-B4CA-40B6-B90B-0360E7E97D88";
name = Regular;
paths = (
{
closed = 1;
nodes = (
"256 0 LINE",
"256 64 LINE",
"256 128 LINE",
"256 192 LINE",
"256 256 LINE",
"256 320 LINE",
"256 384 LINE",
"256 448 LINE",
"192 448 LINE",
"128 448 LINE",
"64 448 LINE",
"64 384 LINE",
"64 320 LINE",
"64 256 LINE",
"64 192 LINE",
"64 128 LINE",
"64 64 LINE",
"64 0 LINE",
"0 0 LINE",
"0 64 LINE",
"0 128 LINE",
"0 192 LINE",
"0 256 LINE",
"0 320 LINE",
"0 384 LINE",
"0 448 LINE",
"0 512 LINE",
"0 576 LINE",
"0 640 LINE",
"0 704 LINE",
"64 704 LINE",
"64 640 LINE",
"64 576 LINE",
"64 512 LINE",
"128 512 LINE",
"192 512 LINE",
"256 512 LINE",
"320 512 LINE",
"320 448 LINE",
"320 384 LINE",
"320 320 LINE",
"320 256 LINE",
"320 192 LINE",
"320 128 LINE",
"320 64 LINE",
"320 0 LINE"
);
}
);
width = 448;
}
);
unicode = 0068;
},
{
glyphname = i;
layers = (
{
layerId = "1F735D37-B4CA-40B6-B90B-0360E7E97D88";
name = Regular;
paths = (
{
closed = 1;
nodes = (
"0 0 LINE",
"0 64 LINE",
"0 128 LINE",
"0 192 LINE",
"0 256 LINE",
"0 320 LINE",
"0 384 LINE",
"0 448 LINE",
"0 512 LINE",
"64 512 LINE",
"64 448 LINE",
"64 384 LINE",
"64 320 LINE",
"64 256 LINE",
"64 192 LINE",
"64 128 LINE",
"64 64 LINE",
"64 0 LINE"
);
},
{
closed = 1;
nodes = (
"0 640 LINE",
"0 704 LINE",
"64 704 LINE",
"64 640 LINE"
);
}
);
width = 192;
}
);
unicode = 0069;
},
{
glyphname = j;
layers = (
{
layerId = "1F735D37-B4CA-40B6-B90B-0360E7E97D88";
name = Regular;
paths = (
{
closed = 1;
nodes = (
"64 640 LINE",
"64 704 LINE",
"128 704 LINE",
"128 640 LINE"
);
},
{
closed = 1;
nodes = (
"64 -128 LINE",
"0 -128 LINE",
"0 -64 LINE",
"64 -64 LINE",
"64 0 LINE",
"64 64 LINE",
"64 128 LINE",
"64 192 LINE",
"64 256 LINE",
"64 320 LINE",
"64 384 LINE",
"64 448 LINE",
"64 512 LINE",
"128 512 LINE",
"128 448 LINE",
"128 384 LINE",
"128 320 LINE",
"128 256 LINE",
"128 192 LINE",
"128 128 LINE",
"128 64 LINE",
"128 0 LINE",
"128 -64 LINE",
"128 -128 LINE"
);
}
);
width = 256;
}
);
unicode = 006A;
},
{
glyphname = k;
layers = (
{
layerId = "1F735D37-B4CA-40B6-B90B-0360E7E97D88";
name = Regular;
paths = (
{
closed = 1;
nodes = (
"256 0 LINE",
"256 64 LINE",
"256 128 LINE",
"256 192 LINE",
"256 256 LINE",
"320 256 LINE",
"320 192 LINE",
"320 128 LINE",
"320 64 LINE",
"320 0 LINE"
);
},
{
closed = 1;
nodes = (
"0 0 LINE",
"0 64 LINE",
"0 128 LINE",
"0 192 LINE",
"0 256 LINE",
"0 320 LINE",
"0 384 LINE",
"0 448 LINE",
"0 512 LINE",
"0 576 LINE",
"0 640 LINE",
"0 704 LINE",
"64 704 LINE",
"64 640 LINE",
"64 576 LINE",
"64 512 LINE",
"64 448 LINE",
"64 384 LINE",
"64 320 LINE",
"128 320 LINE",
"192 320 LINE",
"256 320 LINE",
"256 256 LINE",
"192 256 LINE",
"128 256 LINE",
"64 256 LINE",
"64 192 LINE",
"64 128 LINE",
"64 64 LINE",
"64 0 LINE"
);
},
{
closed = 1;
nodes = (
"256 320 LINE",
"256 384 LINE",
"256 448 LINE",
"256 512 LINE",
"320 512 LINE",
"320 448 LINE",
"320 384 LINE",
"320 320 LINE"
);
}
);
width = 448;
}
);
unicode = 006B;
},
{
glyphname = l;
layers = (
{
layerId = "1F735D37-B4CA-40B6-B90B-0360E7E97D88";
name = Regular;
paths = (
{
closed = 1;
nodes = (
"64 0 LINE",
"0 0 LINE",
"0 64 LINE",
"0 128 LINE",
"0 192 LINE",
"0 256 LINE",
"0 320 LINE",
"0 384 LINE",
"0 448 LINE",
"0 512 LINE",
"0 576 LINE",
"0 640 LINE",
"0 704 LINE",
"64 704 LINE",
"64 640 LINE",
"64 576 LINE",
"64 512 LINE",
"64 448 LINE",
"64 384 LINE",
"64 320 LINE",
"64 256 LINE",
"64 192 LINE",
"64 128 LINE",
"64 64 LINE",
"128 64 LINE",
"128 0 LINE"
);
}
);
width = 256;
}
);
unicode = 006C;
},
{
glyphname = m;
layers = (
{
layerId = "1F735D37-B4CA-40B6-B90B-0360E7E97D88";
name = Regular;
paths = (
{
closed = 1;
nodes = (
"384 0 LINE",
"384 64 LINE",
"384 128 LINE",
"384 192 LINE",
"384 256 LINE",
"384 320 LINE",
"384 384 LINE",
"384 448 LINE",
"320 448 LINE",
"256 448 LINE",
"256 384 LINE",
"256 320 LINE",
"256 256 LINE",
"256 192 LINE",
"256 128 LINE",
"256 64 LINE",
"256 0 LINE",
"192 0 LINE",
"192 64 LINE",
"192 128 LINE",
"192 192 LINE",
"192 256 LINE",
"192 320 LINE",
"192 384 LINE",
"192 448 LINE",
"128 448 LINE",
"64 448 LINE",
"64 384 LINE",
"64 320 LINE",
"64 256 LINE",
"64 192 LINE",
"64 128 LINE",
"64 64 LINE",
"64 0 LINE",
"0 0 LINE",
"0 64 LINE",
"0 128 LINE",
"0 192 LINE",
"0 256 LINE",
"0 320 LINE",
"0 384 LINE",
"0 448 LINE",
"0 512 LINE",
"64 512 LINE",
"128 512 LINE",
"192 512 LINE",
"256 512 LINE",
"320 512 LINE",
"384 512 LINE",
"448 512 LINE",
"448 448 LINE",
"448 384 LINE",
"448 320 LINE",
"448 256 LINE",
"448 192 LINE",
"448 128 LINE",
"448 64 LINE",
"448 0 LINE"
);
}
);
width = 576;
}
);
unicode = 006D;
},
{
glyphname = n;
layers = (
{
layerId = "1F735D37-B4CA-40B6-B90B-0360E7E97D88";
name = Regular;
paths = (
{
closed = 1;
nodes = (
"256 0 LINE",
"256 64 LINE",
"256 128 LINE",
"256 192 LINE",
"256 256 LINE",
"256 320 LINE",
"256 384 LINE",
"256 448 LINE",
"192 448 LINE",
"128 448 LINE",
"64 448 LINE",
"64 384 LINE",
"64 320 LINE",
"64 256 LINE",
"64 192 LINE",
"64 128 LINE",
"64 64 LINE",
"64 0 LINE",
"0 0 LINE",
"0 64 LINE",
"0 128 LINE",
"0 192 LINE",
"0 256 LINE",
"0 320 LINE",
"0 384 LINE",
"0 448 LINE",
"0 512 LINE",
"64 512 LINE",
"128 512 LINE",
"192 512 LINE",
"256 512 LINE",
"320 512 LINE",
"320 448 LINE",
"320 384 LINE",
"320 320 LINE",
"320 256 LINE",
"320 192 LINE",
"320 128 LINE",
"320 64 LINE",
"320 0 LINE"
);
}
);
width = 448;
}
);
unicode = 006E;
},
{
glyphname = o;
layers = (
{
layerId = "1F735D37-B4CA-40B6-B90B-0360E7E97D88";
name = Regular;
paths = (
{
closed = 1;
nodes = (
"256 0 LINE",
"192 0 LINE",
"128 0 LINE",
"64 0 LINE",
"0 0 LINE",
"0 64 LINE",
"0 128 LINE",
"0 192 LINE",
"0 256 LINE",
"0 320 LINE",
"0 384 LINE",
"0 448 LINE",
"0 512 LINE",
"64 512 LINE",
"128 512 LINE",
"192 512 LINE",
"256 512 LINE",
"320 512 LINE",
"320 448 LINE",
"320 384 LINE",
"320 320 LINE",
"320 256 LINE",
"320 192 LINE",
"320 128 LINE",
"320 64 LINE",
"320 0 LINE"
);
},
{
closed = 1;
nodes = (
"192 64 LINE",
"256 64 LINE",
"256 128 LINE",
"256 192 LINE",
"256 256 LINE",
"256 320 LINE",
"256 384 LINE",
"256 448 LINE",
"192 448 LINE",
"128 448 LINE",
"64 448 LINE",
"64 384 LINE",
"64 320 LINE",
"64 256 LINE",
"64 192 LINE",
"64 128 LINE",
"64 64 LINE",
"128 64 LINE"
);
}
);
width = 448;
}
);
unicode = 006F;
},
{
glyphname = p;
layers = (
{
layerId = "1F735D37-B4CA-40B6-B90B-0360E7E97D88";
name = Regular;
paths = (
{
closed = 1;
nodes = (
"0 -128 LINE",
"0 -64 LINE",
"0 0 LINE",
"0 64 LINE",
"0 128 LINE",
"0 192 LINE",
"0 256 LINE",
"0 320 LINE",
"0 384 LINE",
"0 448 LINE",
"0 512 LINE",
"64 512 LINE",
"128 512 LINE",
"192 512 LINE",
"256 512 LINE",
"320 512 LINE",
"320 448 LINE",
"320 384 LINE",
"320 320 LINE",
"320 256 LINE",
"320 192 LINE",
"320 128 LINE",
"320 64 LINE",
"320 0 LINE",
"256 0 LINE",
"192 0 LINE",
"128 0 LINE",
"64 0 LINE",
"64 -64 LINE",
"64 -128 LINE"
);
},
{
closed = 1;
nodes = (
"192 64 LINE",
"256 64 LINE",
"256 128 LINE",
"256 192 LINE",
"256 256 LINE",
"256 320 LINE",
"256 384 LINE",
"256 448 LINE",
"192 448 LINE",
"128 448 LINE",
"64 448 LINE",
"64 384 LINE",
"64 320 LINE",
"64 256 LINE",
"64 192 LINE",
"64 128 LINE",
"64 64 LINE",
"128 64 LINE"
);
}
);
width = 448;
}
);
unicode = 0070;
},
{
glyphname = q;
layers = (
{
layerId = "1F735D37-B4CA-40B6-B90B-0360E7E97D88";
name = Regular;
paths = (
{
closed = 1;
nodes = (
"256 -128 LINE",
"256 -64 LINE",
"256 0 LINE",
"192 0 LINE",
"128 0 LINE",
"64 0 LINE",
"0 0 LINE",
"0 64 LINE",
"0 128 LINE",
"0 192 LINE",
"0 256 LINE",
"0 320 LINE",
"0 384 LINE",
"0 448 LINE",
"0 512 LINE",
"64 512 LINE",
"128 512 LINE",
"192 512 LINE",
"256 512 LINE",
"320 512 LINE",
"320 448 LINE",
"320 384 LINE",
"320 320 LINE",
"320 256 LINE",
"320 192 LINE",
"320 128 LINE",
"320 64 LINE",
"320 0 LINE",
"320 -64 LINE",
"320 -128 LINE"
);
},
{
closed = 1;
nodes = (
"192 64 LINE",
"256 64 LINE",
"256 128 LINE",
"256 192 LINE",
"256 256 LINE",
"256 320 LINE",
"256 384 LINE",
"256 448 LINE",
"192 448 LINE",
"128 448 LINE",
"64 448 LINE",
"64 384 LINE",
"64 320 LINE",
"64 256 LINE",
"64 192 LINE",
"64 128 LINE",
"64 64 LINE",
"128 64 LINE"
);
}
);
width = 448;
}
);
unicode = 0071;
},
{
glyphname = r;
layers = (
{
layerId = "1F735D37-B4CA-40B6-B90B-0360E7E97D88";
name = Regular;
paths = (
{
closed = 1;
nodes = (
"0 0 LINE",
"0 64 LINE",
"0 128 LINE",
"0 192 LINE",
"0 256 LINE",
"0 320 LINE",
"0 384 LINE",
"0 448 LINE",
"0 512 LINE",
"64 512 LINE",
"128 512 LINE",
"192 512 LINE",
"256 512 LINE",
"320 512 LINE",
"320 448 LINE",
"256 448 LINE",
"192 448 LINE",
"128 448 LINE",
"64 448 LINE",
"64 384 LINE",
"64 320 LINE",
"64 256 LINE",
"64 192 LINE",
"64 128 LINE",
"64 64 LINE",
"64 0 LINE"
);
}
);
width = 448;
}
);
unicode = 0072;
},
{
glyphname = s;
layers = (
{
layerId = "1F735D37-B4CA-40B6-B90B-0360E7E97D88";
name = Regular;
paths = (
{
closed = 1;
nodes = (
"256 0 LINE",
"192 0 LINE",
"128 0 LINE",
"64 0 LINE",
"0 0 LINE",
"0 64 LINE",
"64 64 LINE",
"128 64 LINE",
"192 64 LINE",
"256 64 LINE",
"256 128 LINE",
"256 192 LINE",
"256 256 LINE",
"192 256 LINE",
"128 256 LINE",
"64 256 LINE",
"0 256 LINE",
"0 320 LINE",
"0 384 LINE",
"0 448 LINE",
"0 512 LINE",
"64 512 LINE",
"128 512 LINE",
"192 512 LINE",
"256 512 LINE",
"320 512 LINE",
"320 448 LINE",
"256 448 LINE",
"192 448 LINE",
"128 448 LINE",
"64 448 LINE",
"64 384 LINE",
"64 320 LINE",
"128 320 LINE",
"192 320 LINE",
"256 320 LINE",
"320 320 LINE",
"320 256 LINE",
"320 192 LINE",
"320 128 LINE",
"320 64 LINE",
"320 0 LINE"
);
}
);
width = 448;
}
);
unicode = 0073;
},
{
glyphname = t;
layers = (
{
layerId = "1F735D37-B4CA-40B6-B90B-0360E7E97D88";
name = Regular;
paths = (
{
closed = 1;
nodes = (
"256 64 LINE",
"320 64 LINE",
"320 0 LINE",
"256 0 LINE",
"192 0 LINE",
"128 0 LINE",
"128 64 LINE",
"128 128 LINE",
"128 192 LINE",
"128 256 LINE",
"128 320 LINE",
"128 384 LINE",
"128 448 LINE",
"64 448 LINE",
"0 448 LINE",
"0 512 LINE",
"64 512 LINE",
"128 512 LINE",
"128 576 LINE",
"128 640 LINE",
"128 704 LINE",
"192 704 LINE",
"192 640 LINE",
"192 576 LINE",
"192 512 LINE",
"256 512 LINE",
"320 512 LINE",
"320 448 LINE",
"256 448 LINE",
"192 448 LINE",
"192 384 LINE",
"192 320 LINE",
"192 256 LINE",
"192 192 LINE",
"192 128 LINE",
"192 64 LINE"
);
}
);
width = 448;
}
);
unicode = 0074;
},
{
glyphname = u;
layers = (
{
layerId = "1F735D37-B4CA-40B6-B90B-0360E7E97D88";
name = Regular;
paths = (
{
closed = 1;
nodes = (
"256 0 LINE",
"192 0 LINE",
"128 0 LINE",
"64 0 LINE",
"0 0 LINE",
"0 64 LINE",
"0 128 LINE",
"0 192 LINE",
"0 256 LINE",
"0 320 LINE",
"0 384 LINE",
"0 448 LINE",
"0 512 LINE",
"64 512 LINE",
"64 448 LINE",
"64 384 LINE",
"64 320 LINE",
"64 256 LINE",
"64 192 LINE",
"64 128 LINE",
"64 64 LINE",
"128 64 LINE",
"192 64 LINE",
"256 64 LINE",
"256 128 LINE",
"256 192 LINE",
"256 256 LINE",
"256 320 LINE",
"256 384 LINE",
"256 448 LINE",
"256 512 LINE",
"320 512 LINE",
"320 448 LINE",
"320 384 LINE",
"320 320 LINE",
"320 256 LINE",
"320 192 LINE",
"320 128 LINE",
"320 64 LINE",
"320 0 LINE"
);
}
);
width = 448;
}
);
unicode = 0075;
},
{
glyphname = v;
layers = (
{
layerId = "1F735D37-B4CA-40B6-B90B-0360E7E97D88";
name = Regular;
paths = (
{
closed = 1;
nodes = (
"128 0 LINE",
"128 64 LINE",
"192 64 LINE",
"192 0 LINE"
);
},
{
closed = 1;
nodes = (
"192 64 LINE",
"192 128 LINE",
"256 128 LINE",
"256 64 LINE"
);
},
{
closed = 1;
nodes = (
"128 64 LINE",
"64 64 LINE",
"64 128 LINE",
"128 128 LINE"
);
},
{
closed = 1;
nodes = (
"256 128 LINE",
"256 192 LINE",
"256 256 LINE",
"256 320 LINE",
"256 384 LINE",
"256 448 LINE",
"256 512 LINE",
"320 512 LINE",
"320 448 LINE",
"320 384 LINE",
"320 320 LINE",
"320 256 LINE",
"320 192 LINE",
"320 128 LINE"
);
},
{
closed = 1;
nodes = (
"64 128 LINE",
"0 128 LINE",
"0 192 LINE",
"0 256 LINE",
"0 320 LINE",
"0 384 LINE",
"0 448 LINE",
"0 512 LINE",
"64 512 LINE",
"64 448 LINE",
"64 384 LINE",
"64 320 LINE",
"64 256 LINE",
"64 192 LINE"
);
}
);
width = 448;
}
);
unicode = 0076;
},
{
glyphname = w;
layers = (
{
layerId = "1F735D37-B4CA-40B6-B90B-0360E7E97D88";
name = Regular;
paths = (
{
closed = 1;
nodes = (
"384 0 LINE",
"320 0 LINE",
"256 0 LINE",
"192 0 LINE",
"128 0 LINE",
"64 0 LINE",
"0 0 LINE",
"0 64 LINE",
"0 128 LINE",
"0 192 LINE",
"0 256 LINE",
"0 320 LINE",
"0 384 LINE",
"0 448 LINE",
"0 512 LINE",
"64 512 LINE",
"64 448 LINE",
"64 384 LINE",
"64 320 LINE",
"64 256 LINE",
"64 192 LINE",
"64 128 LINE",
"64 64 LINE",
"128 64 LINE",
"192 64 LINE",
"192 128 LINE",
"192 192 LINE",
"192 256 LINE",
"192 320 LINE",
"192 384 LINE",
"192 448 LINE",
"192 512 LINE",
"256 512 LINE",
"256 448 LINE",
"256 384 LINE",
"256 320 LINE",
"256 256 LINE",
"256 192 LINE",
"256 128 LINE",
"256 64 LINE",
"320 64 LINE",
"384 64 LINE",
"384 128 LINE",
"384 192 LINE",
"384 256 LINE",
"384 320 LINE",
"384 384 LINE",
"384 448 LINE",
"384 512 LINE",
"448 512 LINE",
"448 448 LINE",
"448 384 LINE",
"448 320 LINE",
"448 256 LINE",
"448 192 LINE",
"448 128 LINE",
"448 64 LINE",
"448 0 LINE"
);
}
);
width = 576;
}
);
unicode = 0077;
},
{
glyphname = x;
layers = (
{
layerId = "1F735D37-B4CA-40B6-B90B-0360E7E97D88";
name = Regular;
paths = (
{
closed = 1;
nodes = (
"256 0 LINE",
"256 64 LINE",
"256 128 LINE",
"256 192 LINE",
"320 192 LINE",
"320 128 LINE",
"320 64 LINE",
"320 0 LINE"
);
},
{
closed = 1;
nodes = (
"0 0 LINE",
"0 64 LINE",
"0 128 LINE",
"0 192 LINE",
"64 192 LINE",
"64 128 LINE",
"64 64 LINE",
"64 0 LINE"
);
},
{
closed = 1;
nodes = (
"256 192 LINE",
"192 192 LINE",
"192 256 LINE",
"256 256 LINE"
);
},
{
closed = 1;
nodes = (
"64 192 LINE",
"64 256 LINE",
"128 256 LINE",
"128 192 LINE"
);
},
{
closed = 1;
nodes = (
"192 256 LINE",
"128 256 LINE",
"128 320 LINE",
"192 320 LINE"
);
},
{
closed = 1;
nodes = (
"192 320 LINE",
"192 384 LINE",
"256 384 LINE",
"256 320 LINE"
);
},
{
closed = 1;
nodes = (
"128 320 LINE",
"64 320 LINE",
"64 384 LINE",
"128 384 LINE"
);
},
{
closed = 1;
nodes = (
"256 384 LINE",
"256 448 LINE",
"256 512 LINE",
"320 512 LINE",
"320 448 LINE",
"320 384 LINE"
);
},
{
closed = 1;
nodes = (
"64 384 LINE",
"0 384 LINE",
"0 448 LINE",
"0 512 LINE",
"64 512 LINE",
"64 448 LINE"
);
}
);
width = 448;
}
);
unicode = 0078;
},
{
glyphname = y;
layers = (
{
layerId = "1F735D37-B4CA-40B6-B90B-0360E7E97D88";
name = Regular;
paths = (
{
closed = 1;
nodes = (
"256 -128 LINE",
"192 -128 LINE",
"128 -128 LINE",
"64 -128 LINE",
"0 -128 LINE",
"0 -64 LINE",
"64 -64 LINE",
"128 -64 LINE",
"192 -64 LINE",
"256 -64 LINE",
"256 0 LINE",
"192 0 LINE",
"128 0 LINE",
"64 0 LINE",
"0 0 LINE",
"0 64 LINE",
"0 128 LINE",
"0 192 LINE",
"0 256 LINE",
"0 320 LINE",
"0 384 LINE",
"0 448 LINE",
"0 512 LINE",
"64 512 LINE",
"64 448 LINE",
"64 384 LINE",
"64 320 LINE",
"64 256 LINE",
"64 192 LINE",
"64 128 LINE",
"64 64 LINE",
"128 64 LINE",
"192 64 LINE",
"256 64 LINE",
"256 128 LINE",
"256 192 LINE",
"256 256 LINE",
"256 320 LINE",
"256 384 LINE",
"256 448 LINE",
"256 512 LINE",
"320 512 LINE",
"320 448 LINE",
"320 384 LINE",
"320 320 LINE",
"320 256 LINE",
"320 192 LINE",
"320 128 LINE",
"320 64 LINE",
"320 0 LINE",
"320 -64 LINE",
"320 -128 LINE"
);
}
);
width = 448;
}
);
unicode = 0079;
},
{
glyphname = z;
layers = (
{
layerId = "1F735D37-B4CA-40B6-B90B-0360E7E97D88";
name = Regular;
paths = (
{
closed = 1;
nodes = (
"256 64 LINE",
"320 64 LINE",
"320 0 LINE",
"256 0 LINE",
"192 0 LINE",
"128 0 LINE",
"64 0 LINE",
"0 0 LINE",
"0 64 LINE",
"0 128 LINE",
"0 192 LINE",
"64 192 LINE",
"64 128 LINE",
"64 64 LINE",
"128 64 LINE",
"192 64 LINE"
);
},
{
closed = 1;
nodes = (
"64 192 LINE",
"64 256 LINE",
"128 256 LINE",
"128 192 LINE"
);
},
{
closed = 1;
nodes = (
"128 256 LINE",
"128 320 LINE",
"192 320 LINE",
"192 256 LINE"
);
},
{
closed = 1;
nodes = (
"192 320 LINE",
"192 384 LINE",
"256 384 LINE",
"256 320 LINE"
);
},
{
closed = 1;
nodes = (
"256 384 LINE",
"256 448 LINE",
"192 448 LINE",
"128 448 LINE",
"64 448 LINE",
"0 448 LINE",
"0 512 LINE",
"64 512 LINE",
"128 512 LINE",
"192 512 LINE",
"256 512 LINE",
"320 512 LINE",
"320 448 LINE",
"320 384 LINE"
);
}
);
width = 448;
}
);
unicode = 007A;
},
{
glyphname = braceleft;
layers = (
{
layerId = "1F735D37-B4CA-40B6-B90B-0360E7E97D88";
name = Regular;
paths = (
{
closed = 1;
nodes = (
"128 0 LINE",
"64 0 LINE",
"64 64 LINE",
"64 128 LINE",
"64 192 LINE",
"64 256 LINE",
"64 320 LINE",
"0 320 LINE",
"0 384 LINE",
"64 384 LINE",
"64 448 LINE",
"64 512 LINE",
"64 576 LINE",
"64 640 LINE",
"64 704 LINE",
"128 704 LINE",
"192 704 LINE",
"192 640 LINE",
"128 640 LINE",
"128 576 LINE",
"128 512 LINE",
"128 448 LINE",
"128 384 LINE",
"128 320 LINE",
"128 256 LINE",
"128 192 LINE",
"128 128 LINE",
"128 64 LINE",
"192 64 LINE",
"192 0 LINE"
);
}
);
width = 320;
}
);
unicode = 007B;
},
{
glyphname = bar;
layers = (
{
layerId = "1F735D37-B4CA-40B6-B90B-0360E7E97D88";
name = Regular;
paths = (
{
closed = 1;
nodes = (
"0 -128 LINE",
"0 -64 LINE",
"0 0 LINE",
"0 64 LINE",
"0 128 LINE",
"0 192 LINE",
"0 256 LINE",
"0 320 LINE",
"0 384 LINE",
"0 448 LINE",
"0 512 LINE",
"0 576 LINE",
"0 640 LINE",
"0 704 LINE",
"0 768 LINE",
"64 768 LINE",
"64 704 LINE",
"64 640 LINE",
"64 576 LINE",
"64 512 LINE",
"64 448 LINE",
"64 384 LINE",
"64 320 LINE",
"64 256 LINE",
"64 192 LINE",
"64 128 LINE",
"64 64 LINE",
"64 0 LINE",
"64 -64 LINE",
"64 -128 LINE"
);
}
);
width = 192;
}
);
unicode = 007C;
},
{
glyphname = braceright;
layers = (
{
layerId = "1F735D37-B4CA-40B6-B90B-0360E7E97D88";
name = Regular;
paths = (
{
closed = 1;
nodes = (
"64 0 LINE",
"0 0 LINE",
"0 64 LINE",
"64 64 LINE",
"64 128 LINE",
"64 192 LINE",
"64 256 LINE",
"64 320 LINE",
"64 384 LINE",
"64 448 LINE",
"64 512 LINE",
"64 576 LINE",
"64 640 LINE",
"0 640 LINE",
"0 704 LINE",
"64 704 LINE",
"128 704 LINE",
"128 640 LINE",
"128 576 LINE",
"128 512 LINE",
"128 448 LINE",
"128 384 LINE",
"192 384 LINE",
"192 320 LINE",
"128 320 LINE",
"128 256 LINE",
"128 192 LINE",
"128 128 LINE",
"128 64 LINE",
"128 0 LINE"
);
}
);
width = 320;
}
);
unicode = 007D;
},
{
glyphname = cent;
layers = (
{
layerId = "1F735D37-B4CA-40B6-B90B-0360E7E97D88";
name = Regular;
paths = (
{
closed = 1;
nodes = (
"128 0 LINE",
"128 64 LINE",
"64 64 LINE",
"0 64 LINE",
"0 128 LINE",
"0 192 LINE",
"0 256 LINE",
"0 320 LINE",
"0 384 LINE",
"0 448 LINE",
"64 448 LINE",
"128 448 LINE",
"128 512 LINE",
"192 512 LINE",
"192 448 LINE",
"256 448 LINE",
"320 448 LINE",
"320 384 LINE",
"256 384 LINE",
"192 384 LINE",
"128 384 LINE",
"64 384 LINE",
"64 320 LINE",
"64 256 LINE",
"64 192 LINE",
"64 128 LINE",
"128 128 LINE",
"192 128 LINE",
"256 128 LINE",
"320 128 LINE",
"320 64 LINE",
"256 64 LINE",
"192 64 LINE",
"192 0 LINE"
);
}
);
width = 448;
}
);
unicode = 00A2;
},
{
glyphname = sterling;
layers = (
{
layerId = "1F735D37-B4CA-40B6-B90B-0360E7E97D88";
name = Regular;
paths = (
{
closed = 1;
nodes = (
"256 512 LINE",
"256 576 LINE",
"192 576 LINE",
"128 576 LINE",
"128 512 LINE",
"128 448 LINE",
"128 384 LINE",
"128 320 LINE",
"192 320 LINE",
"256 320 LINE",
"256 256 LINE",
"192 256 LINE",
"128 256 LINE",
"128 192 LINE",
"128 128 LINE",
"192 128 LINE",
"256 128 LINE",
"320 128 LINE",
"320 192 LINE",
"384 192 LINE",
"384 128 LINE",
"384 64 LINE",
"320 64 LINE",
"256 64 LINE",
"192 64 LINE",
"128 64 LINE",
"64 64 LINE",
"64 128 LINE",
"64 192 LINE",
"64 256 LINE",
"0 256 LINE",
"0 320 LINE",
"64 320 LINE",
"64 384 LINE",
"64 448 LINE",
"64 512 LINE",
"64 576 LINE",
"64 640 LINE",
"128 640 LINE",
"192 640 LINE",
"256 640 LINE",
"320 640 LINE",
"320 576 LINE",
"320 512 LINE"
);
}
);
width = 512;
}
);
unicode = 00A3;
},
{
glyphname = yen;
layers = (
{
layerId = "1F735D37-B4CA-40B6-B90B-0360E7E97D88";
name = Regular;
paths = (
{
closed = 1;
nodes = (
"128 0 LINE",
"128 64 LINE",
"128 128 LINE",
"64 128 LINE",
"0 128 LINE",
"0 192 LINE",
"64 192 LINE",
"128 192 LINE",
"128 256 LINE",
"64 256 LINE",
"0 256 LINE",
"0 320 LINE",
"64 320 LINE",
"128 320 LINE",
"128 384 LINE",
"64 384 LINE",
"64 448 LINE",
"128 448 LINE",
"192 448 LINE",
"256 448 LINE",
"256 384 LINE",
"192 384 LINE",
"192 320 LINE",
"256 320 LINE",
"320 320 LINE",
"320 256 LINE",
"256 256 LINE",
"192 256 LINE",
"192 192 LINE",
"256 192 LINE",
"320 192 LINE",
"320 128 LINE",
"256 128 LINE",
"192 128 LINE",
"192 64 LINE",
"192 0 LINE"
);
},
{
closed = 1;
nodes = (
"256 448 LINE",
"256 512 LINE",
"256 576 LINE",
"256 640 LINE",
"320 640 LINE",
"320 576 LINE",
"320 512 LINE",
"320 448 LINE"
);
},
{
closed = 1;
nodes = (
"64 448 LINE",
"0 448 LINE",
"0 512 LINE",
"0 576 LINE",
"0 640 LINE",
"64 640 LINE",
"64 576 LINE",
"64 512 LINE"
);
}
);
width = 448;
}
);
unicode = 00A5;
},
{
glyphname = copyright;
layers = (
{
layerId = "1F735D37-B4CA-40B6-B90B-0360E7E97D88";
name = Regular;
paths = (
{
closed = 1;
nodes = (
"448 64 LINE",
"512 64 LINE",
"512 0 LINE",
"448 0 LINE",
"384 0 LINE",
"320 0 LINE",
"256 0 LINE",
"192 0 LINE",
"128 0 LINE",
"64 0 LINE",
"64 64 LINE",
"128 64 LINE",
"192 64 LINE",
"256 64 LINE",
"320 64 LINE",
"384 64 LINE"
);
},
{
closed = 1;
nodes = (
"512 64 LINE",
"512 128 LINE",
"512 192 LINE",
"512 256 LINE",
"512 320 LINE",
"512 384 LINE",
"512 448 LINE",
"512 512 LINE",
"512 576 LINE",
"576 576 LINE",
"576 512 LINE",
"576 448 LINE",
"576 384 LINE",
"576 320 LINE",
"576 256 LINE",
"576 192 LINE",
"576 128 LINE",
"576 64 LINE"
);
},
{
closed = 1;
nodes = (
"64 64 LINE",
"0 64 LINE",
"0 128 LINE",
"0 192 LINE",
"0 256 LINE",
"0 320 LINE",
"0 384 LINE",
"0 448 LINE",
"0 512 LINE",
"0 576 LINE",
"64 576 LINE",
"64 512 LINE",
"64 448 LINE",
"64 384 LINE",
"64 320 LINE",
"64 256 LINE",
"64 192 LINE",
"64 128 LINE"
);
},
{
closed = 1;
nodes = (
"384 192 LINE",
"448 192 LINE",
"448 128 LINE",
"384 128 LINE",
"320 128 LINE",
"256 128 LINE",
"192 128 LINE",
"128 128 LINE",
"128 192 LINE",
"128 256 LINE",
"128 320 LINE",
"128 384 LINE",
"128 448 LINE",
"128 512 LINE",
"192 512 LINE",
"256 512 LINE",
"320 512 LINE",
"384 512 LINE",
"448 512 LINE",
"448 448 LINE",
"384 448 LINE",
"320 448 LINE",
"256 448 LINE",
"192 448 LINE",
"192 384 LINE",
"192 320 LINE",
"192 256 LINE",
"192 192 LINE",
"256 192 LINE",
"320 192 LINE"
);
},
{
closed = 1;
nodes = (
"512 576 LINE",
"448 576 LINE",
"384 576 LINE",
"320 576 LINE",
"256 576 LINE",
"192 576 LINE",
"128 576 LINE",
"64 576 LINE",
"64 640 LINE",
"128 640 LINE",
"192 640 LINE",
"256 640 LINE",
"320 640 LINE",
"384 640 LINE",
"448 640 LINE",
"512 640 LINE"
);
}
);
width = 704;
}
);
unicode = 00A9;
},
{
glyphname = periodcentered;
layers = (
{
layerId = "1F735D37-B4CA-40B6-B90B-0360E7E97D88";
name = Regular;
paths = (
{
closed = 1;
nodes = (
"64 256 LINE",
"0 256 LINE",
"0 320 LINE",
"0 384 LINE",
"64 384 LINE",
"128 384 LINE",
"128 320 LINE",
"128 256 LINE"
);
}
);
width = 256;
}
);
unicode = 00B7;
},
{
glyphname = Ccedilla;
layers = (
{
layerId = "1F735D37-B4CA-40B6-B90B-0360E7E97D88";
name = Regular;
paths = (
{
closed = 1;
nodes = (
"128 -128 LINE",
"64 -128 LINE",
"64 -64 LINE",
"128 -64 LINE",
"128 0 LINE",
"64 0 LINE",
"0 0 LINE",
"0 64 LINE",
"0 128 LINE",
"0 192 LINE",
"0 256 LINE",
"0 320 LINE",
"0 384 LINE",
"0 448 LINE",
"0 512 LINE",
"0 576 LINE",
"0 640 LINE",
"0 704 LINE",
"64 704 LINE",
"128 704 LINE",
"192 704 LINE",
"256 704 LINE",
"320 704 LINE",
"320 640 LINE",
"256 640 LINE",
"192 640 LINE",
"128 640 LINE",
"64 640 LINE",
"64 576 LINE",
"64 512 LINE",
"64 448 LINE",
"64 384 LINE",
"64 320 LINE",
"64 256 LINE",
"64 192 LINE",
"64 128 LINE",
"64 64 LINE",
"128 64 LINE",
"192 64 LINE",
"256 64 LINE",
"320 64 LINE",
"320 0 LINE",
"256 0 LINE",
"192 0 LINE",
"192 -64 LINE",
"192 -128 LINE"
);
}
);
width = 448;
}
);
unicode = 00C7;
},
{
glyphname = Odieresis;
layers = (
{
layerId = "1F735D37-B4CA-40B6-B90B-0360E7E97D88";
name = Regular;
paths = (
{
closed = 1;
nodes = (
"192 704 LINE",
"192 768 LINE",
"256 768 LINE",
"256 704 LINE"
);
},
{
closed = 1;
nodes = (
"64 704 LINE",
"64 768 LINE",
"128 768 LINE",
"128 704 LINE"
);
},
{
closed = 1;
nodes = (
"256 0 LINE",
"192 0 LINE",
"128 0 LINE",
"64 0 LINE",
"0 0 LINE",
"0 64 LINE",
"0 128 LINE",
"0 192 LINE",
"0 256 LINE",
"0 320 LINE",
"0 384 LINE",
"0 448 LINE",
"0 512 LINE",
"0 576 LINE",
"0 640 LINE",
"64 640 LINE",
"128 640 LINE",
"192 640 LINE",
"256 640 LINE",
"320 640 LINE",
"320 576 LINE",
"320 512 LINE",
"320 448 LINE",
"320 384 LINE",
"320 320 LINE",
"320 256 LINE",
"320 192 LINE",
"320 128 LINE",
"320 64 LINE",
"320 0 LINE"
);
},
{
closed = 1;
nodes = (
"192 64 LINE",
"256 64 LINE",
"256 128 LINE",
"256 192 LINE",
"256 256 LINE",
"256 320 LINE",
"256 384 LINE",
"256 448 LINE",
"256 512 LINE",
"256 576 LINE",
"192 576 LINE",
"128 576 LINE",
"64 576 LINE",
"64 512 LINE",
"64 448 LINE",
"64 384 LINE",
"64 320 LINE",
"64 256 LINE",
"64 192 LINE",
"64 128 LINE",
"64 64 LINE",
"128 64 LINE"
);
}
);
width = 448;
}
);
unicode = 00D6;
},
{
glyphname = Udieresis;
layers = (
{
layerId = "1F735D37-B4CA-40B6-B90B-0360E7E97D88";
name = Regular;
paths = (
{
closed = 1;
nodes = (
"192 704 LINE",
"192 768 LINE",
"256 768 LINE",
"256 704 LINE"
);
},
{
closed = 1;
nodes = (
"64 704 LINE",
"64 768 LINE",
"128 768 LINE",
"128 704 LINE"
);
},
{
closed = 1;
nodes = (
"256 0 LINE",
"192 0 LINE",
"128 0 LINE",
"64 0 LINE",
"0 0 LINE",
"0 64 LINE",
"0 128 LINE",
"0 192 LINE",
"0 256 LINE",
"0 320 LINE",
"0 384 LINE",
"0 448 LINE",
"0 512 LINE",
"0 576 LINE",
"0 640 LINE",
"64 640 LINE",
"64 576 LINE",
"64 512 LINE",
"64 448 LINE",
"64 384 LINE",
"64 320 LINE",
"64 256 LINE",
"64 192 LINE",
"64 128 LINE",
"64 64 LINE",
"128 64 LINE",
"192 64 LINE",
"256 64 LINE",
"256 128 LINE",
"256 192 LINE",
"256 256 LINE",
"256 320 LINE",
"256 384 LINE",
"256 448 LINE",
"256 512 LINE",
"256 576 LINE",
"256 640 LINE",
"320 640 LINE",
"320 576 LINE",
"320 512 LINE",
"320 448 LINE",
"320 384 LINE",
"320 320 LINE",
"320 256 LINE",
"320 192 LINE",
"320 128 LINE",
"320 64 LINE",
"320 0 LINE"
);
}
);
width = 448;
}
);
unicode = 00DC;
},
{
glyphname = ccedilla;
layers = (
{
layerId = "1F735D37-B4CA-40B6-B90B-0360E7E97D88";
name = Regular;
paths = (
{
closed = 1;
nodes = (
"128 -128 LINE",
"64 -128 LINE",
"64 -64 LINE",
"128 -64 LINE",
"128 0 LINE",
"64 0 LINE",
"0 0 LINE",
"0 64 LINE",
"0 128 LINE",
"0 192 LINE",
"0 256 LINE",
"0 320 LINE",
"0 384 LINE",
"0 448 LINE",
"0 512 LINE",
"64 512 LINE",
"128 512 LINE",
"192 512 LINE",
"256 512 LINE",
"320 512 LINE",
"320 448 LINE",
"256 448 LINE",
"192 448 LINE",
"128 448 LINE",
"64 448 LINE",
"64 384 LINE",
"64 320 LINE",
"64 256 LINE",
"64 192 LINE",
"64 128 LINE",
"64 64 LINE",
"128 64 LINE",
"192 64 LINE",
"256 64 LINE",
"320 64 LINE",
"320 0 LINE",
"256 0 LINE",
"192 0 LINE",
"192 -64 LINE",
"192 -128 LINE"
);
}
);
width = 448;
}
);
unicode = 00E7;
},
{
glyphname = odieresis;
layers = (
{
layerId = "1F735D37-B4CA-40B6-B90B-0360E7E97D88";
name = Regular;
paths = (
{
closed = 1;
nodes = (
"192 576 LINE",
"192 640 LINE",
"256 640 LINE",
"256 576 LINE"
);
},
{
closed = 1;
nodes = (
"64 576 LINE",
"64 640 LINE",
"128 640 LINE",
"128 576 LINE"
);
},
{
closed = 1;
nodes = (
"256 0 LINE",
"192 0 LINE",
"128 0 LINE",
"64 0 LINE",
"0 0 LINE",
"0 64 LINE",
"0 128 LINE",
"0 192 LINE",
"0 256 LINE",
"0 320 LINE",
"0 384 LINE",
"0 448 LINE",
"0 512 LINE",
"64 512 LINE",
"128 512 LINE",
"192 512 LINE",
"256 512 LINE",
"320 512 LINE",
"320 448 LINE",
"320 384 LINE",
"320 320 LINE",
"320 256 LINE",
"320 192 LINE",
"320 128 LINE",
"320 64 LINE",
"320 0 LINE"
);
},
{
closed = 1;
nodes = (
"192 64 LINE",
"256 64 LINE",
"256 128 LINE",
"256 192 LINE",
"256 256 LINE",
"256 320 LINE",
"256 384 LINE",
"256 448 LINE",
"192 448 LINE",
"128 448 LINE",
"64 448 LINE",
"64 384 LINE",
"64 320 LINE",
"64 256 LINE",
"64 192 LINE",
"64 128 LINE",
"64 64 LINE",
"128 64 LINE"
);
}
);
width = 448;
}
);
unicode = 00F6;
},
{
glyphname = udieresis;
layers = (
{
layerId = "1F735D37-B4CA-40B6-B90B-0360E7E97D88";
name = Regular;
paths = (
{
closed = 1;
nodes = (
"192 576 LINE",
"192 640 LINE",
"256 640 LINE",
"256 576 LINE"
);
},
{
closed = 1;
nodes = (
"64 576 LINE",
"64 640 LINE",
"128 640 LINE",
"128 576 LINE"
);
},
{
closed = 1;
nodes = (
"256 0 LINE",
"192 0 LINE",
"128 0 LINE",
"64 0 LINE",
"0 0 LINE",
"0 64 LINE",
"0 128 LINE",
"0 192 LINE",
"0 256 LINE",
"0 320 LINE",
"0 384 LINE",
"0 448 LINE",
"0 512 LINE",
"64 512 LINE",
"64 448 LINE",
"64 384 LINE",
"64 320 LINE",
"64 256 LINE",
"64 192 LINE",
"64 128 LINE",
"64 64 LINE",
"128 64 LINE",
"192 64 LINE",
"256 64 LINE",
"256 128 LINE",
"256 192 LINE",
"256 256 LINE",
"256 320 LINE",
"256 384 LINE",
"256 448 LINE",
"256 512 LINE",
"320 512 LINE",
"320 448 LINE",
"320 384 LINE",
"320 320 LINE",
"320 256 LINE",
"320 192 LINE",
"320 128 LINE",
"320 64 LINE",
"320 0 LINE"
);
}
);
width = 448;
}
);
unicode = 00FC;
},
{
glyphname = Gbreve;
layers = (
{
layerId = "1F735D37-B4CA-40B6-B90B-0360E7E97D88";
name = Regular;
paths = (
{
closed = 1;
nodes = (
"256 0 LINE",
"192 0 LINE",
"128 0 LINE",
"64 0 LINE",
"0 0 LINE",
"0 64 LINE",
"0 128 LINE",
"0 192 LINE",
"0 256 LINE",
"0 320 LINE",
"0 384 LINE",
"0 448 LINE",
"0 512 LINE",
"0 576 LINE",
"0 640 LINE",
"64 640 LINE",
"128 640 LINE",
"192 640 LINE",
"256 640 LINE",
"320 640 LINE",
"320 576 LINE",
"256 576 LINE",
"192 576 LINE",
"128 576 LINE",
"64 576 LINE",
"64 512 LINE",
"64 448 LINE",
"64 384 LINE",
"64 320 LINE",
"64 256 LINE",
"64 192 LINE",
"64 128 LINE",
"64 64 LINE",
"128 64 LINE",
"192 64 LINE",
"256 64 LINE",
"256 128 LINE",
"256 192 LINE",
"256 256 LINE",
"256 320 LINE",
"192 320 LINE",
"192 384 LINE",
"256 384 LINE",
"320 384 LINE",
"320 320 LINE",
"320 256 LINE",
"320 192 LINE",
"320 128 LINE",
"320 64 LINE",
"320 0 LINE"
);
},
{
closed = 1;
nodes = (
"192 768 LINE",
"256 768 LINE",
"256 704 LINE",
"192 704 LINE",
"128 704 LINE",
"64 704 LINE",
"64 768 LINE",
"128 768 LINE"
);
}
);
width = 448;
}
);
unicode = 011E;
},
{
glyphname = gbreve;
layers = (
{
layerId = "1F735D37-B4CA-40B6-B90B-0360E7E97D88";
name = Regular;
paths = (
{
closed = 1;
nodes = (
"256 -128 LINE",
"192 -128 LINE",
"128 -128 LINE",
"64 -128 LINE",
"0 -128 LINE",
"0 -64 LINE",
"64 -64 LINE",
"128 -64 LINE",
"192 -64 LINE",
"256 -64 LINE",
"256 0 LINE",
"192 0 LINE",
"128 0 LINE",
"64 0 LINE",
"0 0 LINE",
"0 64 LINE",
"0 128 LINE",
"0 192 LINE",
"0 256 LINE",
"0 320 LINE",
"0 384 LINE",
"0 448 LINE",
"0 512 LINE",
"64 512 LINE",
"128 512 LINE",
"192 512 LINE",
"256 512 LINE",
"320 512 LINE",
"320 448 LINE",
"320 384 LINE",
"320 320 LINE",
"320 256 LINE",
"320 192 LINE",
"320 128 LINE",
"320 64 LINE",
"320 0 LINE",
"320 -64 LINE",
"320 -128 LINE"
);
},
{
closed = 1;
nodes = (
"192 64 LINE",
"256 64 LINE",
"256 128 LINE",
"256 192 LINE",
"256 256 LINE",
"256 320 LINE",
"256 384 LINE",
"256 448 LINE",
"192 448 LINE",
"128 448 LINE",
"64 448 LINE",
"64 384 LINE",
"64 320 LINE",
"64 256 LINE",
"64 192 LINE",
"64 128 LINE",
"64 64 LINE",
"128 64 LINE"
);
},
{
closed = 1;
nodes = (
"192 640 LINE",
"256 640 LINE",
"256 576 LINE",
"192 576 LINE",
"128 576 LINE",
"64 576 LINE",
"64 640 LINE",
"128 640 LINE"
);
}
);
width = 448;
}
);
unicode = 011F;
},
{
glyphname = Idotaccent;
layers = (
{
layerId = "1F735D37-B4CA-40B6-B90B-0360E7E97D88";
name = Regular;
paths = (
{
closed = 1;
nodes = (
"0 0 LINE",
"0 64 LINE",
"0 128 LINE",
"0 192 LINE",
"0 256 LINE",
"0 320 LINE",
"0 384 LINE",
"0 448 LINE",
"0 512 LINE",
"0 576 LINE",
"0 640 LINE",
"64 640 LINE",
"64 576 LINE",
"64 512 LINE",
"64 448 LINE",
"64 384 LINE",
"64 320 LINE",
"64 256 LINE",
"64 192 LINE",
"64 128 LINE",
"64 64 LINE",
"64 0 LINE"
);
},
{
closed = 1;
nodes = (
"0 704 LINE",
"0 768 LINE",
"64 768 LINE",
"64 704 LINE"
);
}
);
width = 192;
}
);
unicode = 0130;
},
{
glyphname = dotlessi;
layers = (
{
layerId = "1F735D37-B4CA-40B6-B90B-0360E7E97D88";
name = Regular;
paths = (
{
closed = 1;
nodes = (
"0 0 LINE",
"0 64 LINE",
"0 128 LINE",
"0 192 LINE",
"0 256 LINE",
"0 320 LINE",
"0 384 LINE",
"0 448 LINE",
"0 512 LINE",
"64 512 LINE",
"64 448 LINE",
"64 384 LINE",
"64 320 LINE",
"64 256 LINE",
"64 192 LINE",
"64 128 LINE",
"64 64 LINE",
"64 0 LINE"
);
}
);
width = 192;
}
);
unicode = 0131;
},
{
glyphname = Scedilla;
layers = (
{
layerId = "1F735D37-B4CA-40B6-B90B-0360E7E97D88";
name = Regular;
paths = (
{
closed = 1;
nodes = (
"128 -128 LINE",
"64 -128 LINE",
"64 -64 LINE",
"128 -64 LINE",
"128 0 LINE",
"64 0 LINE",
"0 0 LINE",
"0 64 LINE",
"64 64 LINE",
"128 64 LINE",
"192 64 LINE",
"256 64 LINE",
"256 128 LINE",
"256 192 LINE",
"256 256 LINE",
"256 320 LINE",
"192 320 LINE",
"128 320 LINE",
"64 320 LINE",
"0 320 LINE",
"0 384 LINE",
"0 448 LINE",
"0 512 LINE",
"0 576 LINE",
"0 640 LINE",
"0 704 LINE",
"64 704 LINE",
"128 704 LINE",
"192 704 LINE",
"256 704 LINE",
"320 704 LINE",
"320 640 LINE",
"256 640 LINE",
"192 640 LINE",
"128 640 LINE",
"64 640 LINE",
"64 576 LINE",
"64 512 LINE",
"64 448 LINE",
"64 384 LINE",
"128 384 LINE",
"192 384 LINE",
"256 384 LINE",
"320 384 LINE",
"320 320 LINE",
"320 256 LINE",
"320 192 LINE",
"320 128 LINE",
"320 64 LINE",
"320 0 LINE",
"256 0 LINE",
"192 0 LINE",
"192 -64 LINE",
"192 -128 LINE"
);
}
);
width = 448;
}
);
unicode = 015E;
},
{
glyphname = scedilla;
layers = (
{
layerId = "1F735D37-B4CA-40B6-B90B-0360E7E97D88";
name = Regular;
paths = (
{
closed = 1;
nodes = (
"128 -128 LINE",
"64 -128 LINE",
"64 -64 LINE",
"128 -64 LINE",
"128 0 LINE",
"64 0 LINE",
"0 0 LINE",
"0 64 LINE",
"64 64 LINE",
"128 64 LINE",
"192 64 LINE",
"256 64 LINE",
"256 128 LINE",
"256 192 LINE",
"256 256 LINE",
"192 256 LINE",
"128 256 LINE",
"64 256 LINE",
"0 256 LINE",
"0 320 LINE",
"0 384 LINE",
"0 448 LINE",
"0 512 LINE",
"64 512 LINE",
"128 512 LINE",
"192 512 LINE",
"256 512 LINE",
"320 512 LINE",
"320 448 LINE",
"256 448 LINE",
"192 448 LINE",
"128 448 LINE",
"64 448 LINE",
"64 384 LINE",
"64 320 LINE",
"128 320 LINE",
"192 320 LINE",
"256 320 LINE",
"320 320 LINE",
"320 256 LINE",
"320 192 LINE",
"320 128 LINE",
"320 64 LINE",
"320 0 LINE",
"256 0 LINE",
"192 0 LINE",
"192 -64 LINE",
"192 -128 LINE"
);
}
);
width = 448;
}
);
unicode = 015F;
},
{
glyphname = Euro;
layers = (
{
layerId = "1F735D37-B4CA-40B6-B90B-0360E7E97D88";
name = Regular;
paths = (
{
closed = 1;
nodes = (
"320 128 LINE",
"384 128 LINE",
"384 64 LINE",
"320 64 LINE",
"256 64 LINE",
"192 64 LINE",
"128 64 LINE",
"64 64 LINE",
"64 128 LINE",
"64 192 LINE",
"64 256 LINE",
"0 256 LINE",
"0 320 LINE",
"64 320 LINE",
"64 384 LINE",
"0 384 LINE",
"0 448 LINE",
"64 448 LINE",
"64 512 LINE",
"64 576 LINE",
"64 640 LINE",
"128 640 LINE",
"192 640 LINE",
"256 640 LINE",
"320 640 LINE",
"384 640 LINE",
"384 576 LINE",
"320 576 LINE",
"256 576 LINE",
"192 576 LINE",
"128 576 LINE",
"128 512 LINE",
"128 448 LINE",
"192 448 LINE",
"256 448 LINE",
"320 448 LINE",
"320 384 LINE",
"256 384 LINE",
"192 384 LINE",
"128 384 LINE",
"128 320 LINE",
"192 320 LINE",
"256 320 LINE",
"320 320 LINE",
"320 256 LINE",
"256 256 LINE",
"192 256 LINE",
"128 256 LINE",
"128 192 LINE",
"128 128 LINE",
"192 128 LINE",
"256 128 LINE"
);
}
);
width = 512;
}
);
unicode = 20AC;
},
